<svg xmlns="http://www.w3.org/2000/svg" viewBox="0 0 818 946" width="818" height="946" role="img" aria-label="Scan to visit Newman's OM — fresh sourdough, baked in Jacaranda Cay">
<defs>
<linearGradient id="dot" x1="0" y1="0" x2="1" y2="1">
  <stop offset="0" stop-color="#e85b96"/><stop offset=".4" stop-color="#d1387b"/>
  <stop offset=".75" stop-color="#b2356c"/><stop offset="1" stop-color="#7a1f47"/></linearGradient>
<linearGradient id="gold" x1="0" y1="0" x2="1" y2="1">
  <stop offset="0" stop-color="#e0a53c"/><stop offset="1" stop-color="#c78a2a"/></linearGradient>
<linearGradient id="bar" x1="0" y1="0" x2="1" y2="0">
  <stop offset="0" stop-color="#ff7fb2"/><stop offset=".55" stop-color="#e85b96"/>
  <stop offset="1" stop-color="#e0a53c"/></linearGradient>
<radialGradient id="card" cx="50%" cy="48%" r="72%">
  <stop offset="0" stop-color="#fffdfc"/><stop offset=".5" stop-color="#fff4f8"/>
  <stop offset=".82" stop-color="#ffe4ee"/><stop offset="1" stop-color="#ffd2e4"/></radialGradient>
<radialGradient id="med" cx="50%" cy="40%" r="70%">
  <stop offset="0" stop-color="#ffffff"/><stop offset="1" stop-color="#ffdcea"/></radialGradient>
<filter id="grain"><feTurbulence type="fractalNoise" baseFrequency="0.9" numOctaves="2" stitchTiles="stitch"/>
  <feColorMatrix type="saturate" values="0"/></filter>
<filter id="soft" x="-30%" y="-30%" width="160%" height="160%"><feGaussianBlur stdDeviation="16"/></filter>
<clipPath id="cardclip"><rect x="0" y="0" width="818" height="946" rx="0"/></clipPath>
<path id="star" d="M0,-7 C1,-2 2,-1 7,0 C2,1 1,2 0,7 C-1,2 -2,1 -7,0 C-2,-1 -1,-2 0,-7 Z"/>
</defs>
<rect x="0" y="0" width="818" height="946" fill="url(#card)"/>
<g clip-path="url(#cardclip)">
<text x="165.0" y="76" text-anchor="start" font-family="Fraunces,Georgia,serif" font-size="31" font-weight="500" font-style="italic" fill="#7a5060">Baked every day,</text><text x="443.0" y="76" text-anchor="start" font-family="Fraunces,Georgia,serif" font-size="31" font-weight="500" font-style="italic" fill="#d1387b">baked for you</text>
<g fill="#d1387b">
<circle cx="299.0" cy="131.0" r="11.4"/>
<circle cx="321.0" cy="131.0" r="11.4"/>
<circle cx="343.0" cy="131.0" r="11.4"/>
<circle cx="365.0" cy="131.0" r="11.4"/>
<circle cx="409.0" cy="131.0" r="11.4"/>
<circle cx="431.0" cy="131.0" r="11.4"/>
<circle cx="453.0" cy="131.0" r="11.4"/>
<circle cx="497.0" cy="131.0" r="11.4"/>
<circle cx="299.0" cy="153.0" r="11.4"/>
<circle cx="321.0" cy="153.0" r="11.4"/>
<circle cx="365.0" cy="153.0" r="11.4"/>
<circle cx="409.0" cy="153.0" r="11.4"/>
<circle cx="453.0" cy="153.0" r="11.4"/>
<circle cx="497.0" cy="153.0" r="11.4"/>
<circle cx="541.0" cy="153.0" r="11.4"/>
<circle cx="387.0" cy="175.0" r="11.4"/>
<circle cx="409.0" cy="175.0" r="11.4"/>
<circle cx="497.0" cy="175.0" r="11.4"/>
<circle cx="519.0" cy="175.0" r="11.4"/>
<circle cx="343.0" cy="197.0" r="11.4"/>
<circle cx="365.0" cy="197.0" r="11.4"/>
<circle cx="431.0" cy="197.0" r="11.4"/>
<circle cx="475.0" cy="197.0" r="11.4"/>
<circle cx="541.0" cy="197.0" r="11.4"/>
<circle cx="277.0" cy="219.0" r="11.4"/>
<circle cx="343.0" cy="219.0" r="11.4"/>
<circle cx="365.0" cy="219.0" r="11.4"/>
<circle cx="409.0" cy="219.0" r="11.4"/>
<circle cx="431.0" cy="219.0" r="11.4"/>
<circle cx="453.0" cy="219.0" r="11.4"/>
<circle cx="519.0" cy="219.0" r="11.4"/>
<circle cx="299.0" cy="241.0" r="11.4"/>
<circle cx="321.0" cy="241.0" r="11.4"/>
<circle cx="409.0" cy="241.0" r="11.4"/>
<circle cx="453.0" cy="241.0" r="11.4"/>
<circle cx="475.0" cy="241.0" r="11.4"/>
<circle cx="497.0" cy="241.0" r="11.4"/>
<circle cx="519.0" cy="241.0" r="11.4"/>
<circle cx="541.0" cy="241.0" r="11.4"/>
<circle cx="277.0" cy="263.0" r="11.4"/>
<circle cx="321.0" cy="263.0" r="11.4"/>
<circle cx="365.0" cy="263.0" r="11.4"/>
<circle cx="409.0" cy="263.0" r="11.4"/>
<circle cx="453.0" cy="263.0" r="11.4"/>
<circle cx="497.0" cy="263.0" r="11.4"/>
<circle cx="541.0" cy="263.0" r="11.4"/>
<circle cx="277.0" cy="285.0" r="11.4"/>
<circle cx="299.0" cy="285.0" r="11.4"/>
<circle cx="321.0" cy="285.0" r="11.4"/>
<circle cx="453.0" cy="285.0" r="11.4"/>
<circle cx="145.0" cy="307.0" r="11.4"/>
<circle cx="167.0" cy="307.0" r="11.4"/>
<circle cx="233.0" cy="307.0" r="11.4"/>
<circle cx="255.0" cy="307.0" r="11.4"/>
<circle cx="277.0" cy="307.0" r="11.4"/>
<circle cx="343.0" cy="307.0" r="11.4"/>
<circle cx="365.0" cy="307.0" r="11.4"/>
<circle cx="431.0" cy="307.0" r="11.4"/>
<circle cx="497.0" cy="307.0" r="11.4"/>
<circle cx="519.0" cy="307.0" r="11.4"/>
<circle cx="563.0" cy="307.0" r="11.4"/>
<circle cx="585.0" cy="307.0" r="11.4"/>
<circle cx="629.0" cy="307.0" r="11.4"/>
<circle cx="123.0" cy="329.0" r="11.4"/>
<circle cx="145.0" cy="329.0" r="11.4"/>
<circle cx="211.0" cy="329.0" r="11.4"/>
<circle cx="277.0" cy="329.0" r="11.4"/>
<circle cx="299.0" cy="329.0" r="11.4"/>
<circle cx="343.0" cy="329.0" r="11.4"/>
<circle cx="365.0" cy="329.0" r="11.4"/>
<circle cx="497.0" cy="329.0" r="11.4"/>
<circle cx="563.0" cy="329.0" r="11.4"/>
<circle cx="585.0" cy="329.0" r="11.4"/>
<circle cx="607.0" cy="329.0" r="11.4"/>
<circle cx="629.0" cy="329.0" r="11.4"/>
<circle cx="651.0" cy="329.0" r="11.4"/>
<circle cx="673.0" cy="329.0" r="11.4"/>
<circle cx="717.0" cy="329.0" r="11.4"/>
<circle cx="101.0" cy="351.0" r="11.4"/>
<circle cx="167.0" cy="351.0" r="11.4"/>
<circle cx="189.0" cy="351.0" r="11.4"/>
<circle cx="211.0" cy="351.0" r="11.4"/>
<circle cx="233.0" cy="351.0" r="11.4"/>
<circle cx="255.0" cy="351.0" r="11.4"/>
<circle cx="277.0" cy="351.0" r="11.4"/>
<circle cx="299.0" cy="351.0" r="11.4"/>
<circle cx="343.0" cy="351.0" r="11.4"/>
<circle cx="409.0" cy="351.0" r="11.4"/>
<circle cx="453.0" cy="351.0" r="11.4"/>
<circle cx="497.0" cy="351.0" r="11.4"/>
<circle cx="585.0" cy="351.0" r="11.4"/>
<circle cx="607.0" cy="351.0" r="11.4"/>
<circle cx="629.0" cy="351.0" r="11.4"/>
<circle cx="695.0" cy="351.0" r="11.4"/>
<circle cx="123.0" cy="373.0" r="11.4"/>
<circle cx="145.0" cy="373.0" r="11.4"/>
<circle cx="189.0" cy="373.0" r="11.4"/>
<circle cx="299.0" cy="373.0" r="11.4"/>
<circle cx="321.0" cy="373.0" r="11.4"/>
<circle cx="343.0" cy="373.0" r="11.4"/>
<circle cx="365.0" cy="373.0" r="11.4"/>
<circle cx="409.0" cy="373.0" r="11.4"/>
<circle cx="431.0" cy="373.0" r="11.4"/>
<circle cx="475.0" cy="373.0" r="11.4"/>
<circle cx="497.0" cy="373.0" r="11.4"/>
<circle cx="541.0" cy="373.0" r="11.4"/>
<circle cx="607.0" cy="373.0" r="11.4"/>
<circle cx="629.0" cy="373.0" r="11.4"/>
<circle cx="717.0" cy="373.0" r="11.4"/>
<circle cx="101.0" cy="395.0" r="11.4"/>
<circle cx="167.0" cy="395.0" r="11.4"/>
<circle cx="189.0" cy="395.0" r="11.4"/>
<circle cx="211.0" cy="395.0" r="11.4"/>
<circle cx="233.0" cy="395.0" r="11.4"/>
<circle cx="255.0" cy="395.0" r="11.4"/>
<circle cx="277.0" cy="395.0" r="11.4"/>
<circle cx="299.0" cy="395.0" r="11.4"/>
<circle cx="321.0" cy="395.0" r="11.4"/>
<circle cx="365.0" cy="395.0" r="11.4"/>
<circle cx="475.0" cy="395.0" r="11.4"/>
<circle cx="519.0" cy="395.0" r="11.4"/>
<circle cx="563.0" cy="395.0" r="11.4"/>
<circle cx="607.0" cy="395.0" r="11.4"/>
<circle cx="651.0" cy="395.0" r="11.4"/>
<circle cx="673.0" cy="395.0" r="11.4"/>
<circle cx="695.0" cy="395.0" r="11.4"/>
<circle cx="717.0" cy="395.0" r="11.4"/>
<circle cx="145.0" cy="417.0" r="11.4"/>
<circle cx="277.0" cy="417.0" r="11.4"/>
<circle cx="299.0" cy="417.0" r="11.4"/>
<circle cx="365.0" cy="417.0" r="11.4"/>
<circle cx="431.0" cy="417.0" r="11.4"/>
<circle cx="475.0" cy="417.0" r="11.4"/>
<circle cx="497.0" cy="417.0" r="11.4"/>
<circle cx="519.0" cy="417.0" r="11.4"/>
<circle cx="585.0" cy="417.0" r="11.4"/>
<circle cx="607.0" cy="417.0" r="11.4"/>
<circle cx="651.0" cy="417.0" r="11.4"/>
<circle cx="673.0" cy="417.0" r="11.4"/>
<circle cx="717.0" cy="417.0" r="11.4"/>
<circle cx="167.0" cy="439.0" r="11.4"/>
<circle cx="233.0" cy="439.0" r="11.4"/>
<circle cx="321.0" cy="439.0" r="11.4"/>
<circle cx="387.0" cy="439.0" r="11.4"/>
<circle cx="453.0" cy="439.0" r="11.4"/>
<circle cx="519.0" cy="439.0" r="11.4"/>
<circle cx="585.0" cy="439.0" r="11.4"/>
<circle cx="607.0" cy="439.0" r="11.4"/>
<circle cx="629.0" cy="439.0" r="11.4"/>
<circle cx="651.0" cy="439.0" r="11.4"/>
<circle cx="695.0" cy="439.0" r="11.4"/>
<circle cx="717.0" cy="439.0" r="11.4"/>
<circle cx="123.0" cy="461.0" r="11.4"/>
<circle cx="145.0" cy="461.0" r="11.4"/>
<circle cx="255.0" cy="461.0" r="11.4"/>
<circle cx="277.0" cy="461.0" r="11.4"/>
<circle cx="299.0" cy="461.0" r="11.4"/>
<circle cx="365.0" cy="461.0" r="11.4"/>
<circle cx="453.0" cy="461.0" r="11.4"/>
<circle cx="475.0" cy="461.0" r="11.4"/>
<circle cx="519.0" cy="461.0" r="11.4"/>
<circle cx="541.0" cy="461.0" r="11.4"/>
<circle cx="585.0" cy="461.0" r="11.4"/>
<circle cx="629.0" cy="461.0" r="11.4"/>
<circle cx="651.0" cy="461.0" r="11.4"/>
<circle cx="145.0" cy="483.0" r="11.4"/>
<circle cx="189.0" cy="483.0" r="11.4"/>
<circle cx="211.0" cy="483.0" r="11.4"/>
<circle cx="233.0" cy="483.0" r="11.4"/>
<circle cx="255.0" cy="483.0" r="11.4"/>
<circle cx="343.0" cy="483.0" r="11.4"/>
<circle cx="431.0" cy="483.0" r="11.4"/>
<circle cx="453.0" cy="483.0" r="11.4"/>
<circle cx="519.0" cy="483.0" r="11.4"/>
<circle cx="541.0" cy="483.0" r="11.4"/>
<circle cx="563.0" cy="483.0" r="11.4"/>
<circle cx="607.0" cy="483.0" r="11.4"/>
<circle cx="629.0" cy="483.0" r="11.4"/>
<circle cx="651.0" cy="483.0" r="11.4"/>
<circle cx="167.0" cy="505.0" r="11.4"/>
<circle cx="189.0" cy="505.0" r="11.4"/>
<circle cx="211.0" cy="505.0" r="11.4"/>
<circle cx="255.0" cy="505.0" r="11.4"/>
<circle cx="299.0" cy="505.0" r="11.4"/>
<circle cx="365.0" cy="505.0" r="11.4"/>
<circle cx="387.0" cy="505.0" r="11.4"/>
<circle cx="409.0" cy="505.0" r="11.4"/>
<circle cx="453.0" cy="505.0" r="11.4"/>
<circle cx="475.0" cy="505.0" r="11.4"/>
<circle cx="497.0" cy="505.0" r="11.4"/>
<circle cx="651.0" cy="505.0" r="11.4"/>
<circle cx="101.0" cy="527.0" r="11.4"/>
<circle cx="167.0" cy="527.0" r="11.4"/>
<circle cx="233.0" cy="527.0" r="11.4"/>
<circle cx="255.0" cy="527.0" r="11.4"/>
<circle cx="277.0" cy="527.0" r="11.4"/>
<circle cx="343.0" cy="527.0" r="11.4"/>
<circle cx="365.0" cy="527.0" r="11.4"/>
<circle cx="541.0" cy="527.0" r="11.4"/>
<circle cx="585.0" cy="527.0" r="11.4"/>
<circle cx="607.0" cy="527.0" r="11.4"/>
<circle cx="629.0" cy="527.0" r="11.4"/>
<circle cx="651.0" cy="527.0" r="11.4"/>
<circle cx="673.0" cy="527.0" r="11.4"/>
<circle cx="145.0" cy="549.0" r="11.4"/>
<circle cx="211.0" cy="549.0" r="11.4"/>
<circle cx="277.0" cy="549.0" r="11.4"/>
<circle cx="321.0" cy="549.0" r="11.4"/>
<circle cx="343.0" cy="549.0" r="11.4"/>
<circle cx="365.0" cy="549.0" r="11.4"/>
<circle cx="387.0" cy="549.0" r="11.4"/>
<circle cx="409.0" cy="549.0" r="11.4"/>
<circle cx="431.0" cy="549.0" r="11.4"/>
<circle cx="453.0" cy="549.0" r="11.4"/>
<circle cx="475.0" cy="549.0" r="11.4"/>
<circle cx="563.0" cy="549.0" r="11.4"/>
<circle cx="585.0" cy="549.0" r="11.4"/>
<circle cx="629.0" cy="549.0" r="11.4"/>
<circle cx="651.0" cy="549.0" r="11.4"/>
<circle cx="673.0" cy="549.0" r="11.4"/>
<circle cx="717.0" cy="549.0" r="11.4"/>
<circle cx="123.0" cy="571.0" r="11.4"/>
<circle cx="167.0" cy="571.0" r="11.4"/>
<circle cx="211.0" cy="571.0" r="11.4"/>
<circle cx="233.0" cy="571.0" r="11.4"/>
<circle cx="255.0" cy="571.0" r="11.4"/>
<circle cx="277.0" cy="571.0" r="11.4"/>
<circle cx="321.0" cy="571.0" r="11.4"/>
<circle cx="343.0" cy="571.0" r="11.4"/>
<circle cx="365.0" cy="571.0" r="11.4"/>
<circle cx="387.0" cy="571.0" r="11.4"/>
<circle cx="431.0" cy="571.0" r="11.4"/>
<circle cx="453.0" cy="571.0" r="11.4"/>
<circle cx="475.0" cy="571.0" r="11.4"/>
<circle cx="541.0" cy="571.0" r="11.4"/>
<circle cx="563.0" cy="571.0" r="11.4"/>
<circle cx="585.0" cy="571.0" r="11.4"/>
<circle cx="607.0" cy="571.0" r="11.4"/>
<circle cx="629.0" cy="571.0" r="11.4"/>
<circle cx="651.0" cy="571.0" r="11.4"/>
<circle cx="673.0" cy="571.0" r="11.4"/>
<circle cx="695.0" cy="571.0" r="11.4"/>
<circle cx="717.0" cy="571.0" r="11.4"/>
<circle cx="277.0" cy="593.0" r="11.4"/>
<circle cx="299.0" cy="593.0" r="11.4"/>
<circle cx="321.0" cy="593.0" r="11.4"/>
<circle cx="387.0" cy="593.0" r="11.4"/>
<circle cx="453.0" cy="593.0" r="11.4"/>
<circle cx="475.0" cy="593.0" r="11.4"/>
<circle cx="541.0" cy="593.0" r="11.4"/>
<circle cx="629.0" cy="593.0" r="11.4"/>
<circle cx="651.0" cy="593.0" r="11.4"/>
<circle cx="695.0" cy="593.0" r="11.4"/>
<circle cx="717.0" cy="593.0" r="11.4"/>
<circle cx="277.0" cy="615.0" r="11.4"/>
<circle cx="299.0" cy="615.0" r="11.4"/>
<circle cx="321.0" cy="615.0" r="11.4"/>
<circle cx="365.0" cy="615.0" r="11.4"/>
<circle cx="409.0" cy="615.0" r="11.4"/>
<circle cx="475.0" cy="615.0" r="11.4"/>
<circle cx="519.0" cy="615.0" r="11.4"/>
<circle cx="541.0" cy="615.0" r="11.4"/>
<circle cx="585.0" cy="615.0" r="11.4"/>
<circle cx="629.0" cy="615.0" r="11.4"/>
<circle cx="673.0" cy="615.0" r="11.4"/>
<circle cx="695.0" cy="615.0" r="11.4"/>
<circle cx="321.0" cy="637.0" r="11.4"/>
<circle cx="409.0" cy="637.0" r="11.4"/>
<circle cx="541.0" cy="637.0" r="11.4"/>
<circle cx="629.0" cy="637.0" r="11.4"/>
<circle cx="695.0" cy="637.0" r="11.4"/>
<circle cx="717.0" cy="637.0" r="11.4"/>
<circle cx="321.0" cy="659.0" r="11.4"/>
<circle cx="343.0" cy="659.0" r="11.4"/>
<circle cx="365.0" cy="659.0" r="11.4"/>
<circle cx="387.0" cy="659.0" r="11.4"/>
<circle cx="475.0" cy="659.0" r="11.4"/>
<circle cx="541.0" cy="659.0" r="11.4"/>
<circle cx="563.0" cy="659.0" r="11.4"/>
<circle cx="585.0" cy="659.0" r="11.4"/>
<circle cx="607.0" cy="659.0" r="11.4"/>
<circle cx="629.0" cy="659.0" r="11.4"/>
<circle cx="651.0" cy="659.0" r="11.4"/>
<circle cx="673.0" cy="659.0" r="11.4"/>
<circle cx="717.0" cy="659.0" r="11.4"/>
<circle cx="277.0" cy="681.0" r="11.4"/>
<circle cx="299.0" cy="681.0" r="11.4"/>
<circle cx="321.0" cy="681.0" r="11.4"/>
<circle cx="387.0" cy="681.0" r="11.4"/>
<circle cx="409.0" cy="681.0" r="11.4"/>
<circle cx="431.0" cy="681.0" r="11.4"/>
<circle cx="475.0" cy="681.0" r="11.4"/>
<circle cx="497.0" cy="681.0" r="11.4"/>
<circle cx="519.0" cy="681.0" r="11.4"/>
<circle cx="629.0" cy="681.0" r="11.4"/>
<circle cx="651.0" cy="681.0" r="11.4"/>
<circle cx="695.0" cy="681.0" r="11.4"/>
<circle cx="277.0" cy="703.0" r="11.4"/>
<circle cx="299.0" cy="703.0" r="11.4"/>
<circle cx="365.0" cy="703.0" r="11.4"/>
<circle cx="409.0" cy="703.0" r="11.4"/>
<circle cx="431.0" cy="703.0" r="11.4"/>
<circle cx="453.0" cy="703.0" r="11.4"/>
<circle cx="475.0" cy="703.0" r="11.4"/>
<circle cx="497.0" cy="703.0" r="11.4"/>
<circle cx="541.0" cy="703.0" r="11.4"/>
<circle cx="607.0" cy="703.0" r="11.4"/>
<circle cx="673.0" cy="703.0" r="11.4"/>
<circle cx="717.0" cy="703.0" r="11.4"/>
<circle cx="299.0" cy="725.0" r="11.4"/>
<circle cx="343.0" cy="725.0" r="11.4"/>
<circle cx="365.0" cy="725.0" r="11.4"/>
<circle cx="409.0" cy="725.0" r="11.4"/>
<circle cx="431.0" cy="725.0" r="11.4"/>
<circle cx="453.0" cy="725.0" r="11.4"/>
<circle cx="541.0" cy="725.0" r="11.4"/>
<circle cx="585.0" cy="725.0" r="11.4"/>
<circle cx="629.0" cy="725.0" r="11.4"/>
<circle cx="651.0" cy="725.0" r="11.4"/>
<circle cx="695.0" cy="725.0" r="11.4"/>
<circle cx="299.0" cy="747.0" r="11.4"/>
<circle cx="321.0" cy="747.0" r="11.4"/>
<circle cx="343.0" cy="747.0" r="11.4"/>
<circle cx="387.0" cy="747.0" r="11.4"/>
<circle cx="409.0" cy="747.0" r="11.4"/>
<circle cx="431.0" cy="747.0" r="11.4"/>
<circle cx="497.0" cy="747.0" r="11.4"/>
<circle cx="519.0" cy="747.0" r="11.4"/>
<circle cx="541.0" cy="747.0" r="11.4"/>
<circle cx="563.0" cy="747.0" r="11.4"/>
<circle cx="585.0" cy="747.0" r="11.4"/>
<circle cx="607.0" cy="747.0" r="11.4"/>
<circle cx="695.0" cy="747.0" r="11.4"/>
</g>
<rect x="90.0" y="120.0" width="154.0" height="154.0" rx="43.1" fill="#d1387b"/><rect x="112.0" y="142.0" width="110.0" height="110.0" rx="30.8" fill="#fff8f5"/><rect x="134.0" y="164.0" width="66.0" height="66.0" rx="19.8" fill="#d1387b"/>
<rect x="574.0" y="120.0" width="154.0" height="154.0" rx="43.1" fill="#d1387b"/><rect x="596.0" y="142.0" width="110.0" height="110.0" rx="30.8" fill="#fff8f5"/><rect x="618.0" y="164.0" width="66.0" height="66.0" rx="19.8" fill="#d1387b"/>
<rect x="90.0" y="604.0" width="154.0" height="154.0" rx="43.1" fill="#d1387b"/><rect x="112.0" y="626.0" width="110.0" height="110.0" rx="30.8" fill="#fff8f5"/><rect x="134.0" y="648.0" width="66.0" height="66.0" rx="19.8" fill="#d1387b"/>
<g transform="translate(37.36 882.00) scale(0.05900 -0.05900)" fill="#40202f"><path transform="translate(0.0 0)" d="M502.2994728088379 31.640192985534668Q502.2994728088379 17.562449097633362 492.0334675312042 8.966812700033188Q481.76746225357056 0.3711763024330139 460.36939883232117 0H109.15721786022186Q87.75915443897247 0.3711763024330139 77.3075610101223 8.966812700033188Q66.85596758127213 17.562449097633362 66.85596758127213 31.640192985534668Q66.85596758127213 55.18894124031067 98.78454858064651 67.32604730129242L150.37272906303406 82.29929548501968Q195.71466726064682 98.15496182441711 217.32426396012306 122.85339322686195Q238.9338606595993 147.5518246293068 238.9338606595993 198.16419863700867V1120.896651148796Q238.9338606595993 1146.2796893715858 233.57444614171982 1161.5171196460724Q228.21503162384033 1176.754549920559 205.93671482801437 1204.7463712096214L118.45692759752274 1327.8794435858727Q106.86214745044708 1344.5113796591759 101.44871506094933 1354.2848852276802Q96.03528267145157 1364.0583907961845 96.03528267145157 1372.9209141731262Q96.03528267145157 1386.1799790263176 105.50631031394005 1393.0899895131588Q114.97733795642853 1400 131.16010534763336 1400H387.8210008740425Q408.9920530319214 1400 423.0665515065193 1391.5974788367748Q437.14104998111725 1383.1949576735497 453.0020760297775 1360.6780768036842L1206.727210521698 271.55065500736237L1171.5410752296448 187.14070588350296V1201.8358013629913Q1171.5410752296448 1251.8583711385727 1150.744996368885 1276.871214389801Q1129.9489175081253 1301.8840576410294 1082.3697501420975 1317.7007045149803L1019.5590696334839 1332.6739526987076Q987.6304886341095 1345.9245876669884 987.6304886341095 1368.3598070144653Q987.6304886341095 1383.2087516188622 998.0820820629597 1391.604375809431Q1008.5336754918098 1400 1029.5605626106262 1400H1380.7727435827255Q1402.170807003975 1400 1412.622400432825 1391.604375809431Q1423.0739938616753 1383.2087516188622 1423.0739938616753 1368.3598070144653Q1423.0739938616753 1345.1822350621223 1391.1454128623009 1332.6739526987076L1339.5572323799133 1317.7007045149803Q1294.367842555046 1302.9975865483284 1272.681971669197 1277.9847432971Q1250.996100783348 1252.9719000458717 1250.996100783348 1201.8358013629913V253.15963298082352Q1250.996100783348 228.3682335615158 1256.0952433943748 210.39301425218582Q1261.1943860054016 192.41779494285583 1272.0282588601112 176.87041759490967L1337.289069533348 83.38144260644913Q1352.8853935599327 61.65141558647156 1357.0565576553345 50.62023934721947Q1361.2277217507362 39.58906310796738 1361.2277217507362 29.850239992141724Q1361.2277217507362 16.514924228191376 1351.5278948247433 8.257462114095688Q1341.8280678987503 0 1323.0265726447105 0H1049.5976949334145Q1014.0116221308708 0 1014.0116221308708 29.61828178167343Q1014.0116221308708 41.89965736865997 1009.198937267065 54.035114139318466Q1004.3862524032593 66.17057090997696 984.3963701725006 93.06207150220871L243.1939846277237 1162.3427908420563L318.3888862133026 1204.039143204689V197.56422305107117Q318.3888862133026 148.66535353660583 339.4468041360378 123.81437376141548Q360.50472205877304 98.96339398622513 406.95001780986786 82.29929548501968L470.3708918094635 67.32604730129242Q502.2994728088379 54.817764937877655 502.2994728088379 31.640192985534668Z"/><path transform="translate(1454.2 0)" d="M939.1983115077019 564.0649643540382Q939.1983115077019 527.2075828313828 917.9229643344879 507.0221764445305Q896.647617161274 486.8367700576782 855.8003025054932 486.8367700576782H233.35347259044647V541.8022409081459H634.6954976916313Q672.9956325888634 541.8022409081459 672.9956325888634 577.924235701561Q672.9956325888634 726.647216796875 625.0615949332714 801.0449964702129Q577.1275572776794 875.4427761435509 501.4357163310051 875.4427761435509Q441.27461951971054 875.4427761435509 395.9428789615631 837.4988924860954Q350.6111384034157 799.55500882864 325.064738959074 725.6126901507378Q299.51833951473236 651.6703714728355 299.51833951473236 544.2513173222542Q299.51833951473236 346.0933935046196 388.7645592689514 247.02838185429573Q478.01077902317047 147.96337020397186 624.2925787568092 147.96337020397186Q718.1659864783287 147.96337020397186 786.4825639426708 191.220743983984Q854.7991414070129 234.47811776399612 881.4159899950027 311.36845993995667Q892.8276032209396 325.34292179346085 900.233436524868 330.3691721856594Q907.6392698287964 335.39542257785797 915.1968940496445 335.39542257785797Q926.0866751074791 335.39542257785797 931.4035749137402 325.67688113451004Q936.7204747200012 315.9583396911621 936.3204503059387 301.07888102531433Q931.7100126743317 211.4642886519432 877.4882557094097 137.72419568896294Q823.2664987444878 63.984102725982666 731.9239764809608 20.507346153259277Q640.5814542174339 -22.96941041946411 523.7994322776794 -22.96941041946411Q386.9608628153801 -22.96941041946411 281.65455240011215 34.73814335465431Q176.3482419848442 92.44569712877274 116.74350565671921 196.9329337477684Q57.13876932859421 301.42017036676407 57.13876932859421 441.27274894714355Q57.13876932859421 589.5824088454247 115.06904390454292 702.7594428658485Q172.99931848049164 815.9364768862724 280.47335878014565 880.0577625334263Q387.94739907979965 944.1790481805801 535.5550326108932 944.1790481805801Q661.5743302702904 944.1790481805801 751.9882008731365 895.197879076004Q842.4020714759827 846.2167099714279 890.8001914918423 760.5118970870972Q939.1983115077019 674.8070842027664 939.1983115077019 564.0649643540382Z"/><path transform="translate(2429.3 0)" d="M529.0293548107147 -4.949520826339722H431.3191172480583Q409.16686391830444 -4.949520826339722 393.24588334560394 5.512243956327438Q377.32490277290344 15.974008738994598 368.1673784852028 41.59070008993149L107.63873767852783 800.9949291348457Q97.86069750785828 830.6155451536179 87.26140955090523 841.1088312864304Q76.66212159395218 851.6021174192429 60.86182862520218 855.1919216513634L25.629226744174957 863.2104763388634Q11.596964180469513 867.8747900128365 5.923236608505249 874.8094714283943Q0.2495090365409851 881.7441528439522 0.2495090365409851 892.7287860512733Q0.2495090365409851 906.5506240129471 10.058725446462631 914.098834335804Q19.867941856384277 921.6470446586609 36.677942514419556 921.6470446586609H465.95053774118423Q483.0181857943535 921.6470446586609 492.78927674889565 914.1462981700897Q502.5603677034378 906.6455516815186 502.5603677034378 892.8237137198448Q502.5603677034378 881.8390805125237 495.88242518901825 874.85693526268Q489.2044826745987 867.8747900128365 472.8875415921211 863.8002805709839L430.1092353463173 856.0664333701134Q398.2441801428795 850.3054040074348 391.93898460268974 831.2028561532497Q385.6337890625 812.1003082990646 401.7524914741516 762.9153041243553L596.979574739933 167.7707896232605L537.7781736254692 88.49486434459686L772.3214365839958 788.1303148269653L834.1105334162712 746.4473217129707L590.9234461784363 36.49751389026642Q582.0235692858696 12.757122278213501 565.2839619219303 3.9038007259368896Q548.544354557991 -4.949520826339722 529.0293548107147 -4.949520826339722ZM1140.0071090459824 -4.949520826339722H1044.1239048838615Q1023.3903527259827 -4.949520826339722 1006.5744334161282 6.050392687320709Q989.7585141062737 17.05030620098114 981.219642162323 41.800869166851044L726.0906771421432 802.5713925361633Q716.3499904870987 831.3375198841095 706.5888768136501 841.6985713839531Q696.8277631402016 852.0596228837967 682.3053847551346 855.3443769216537L649.9148458242416 862.9053795933723Q635.6724141836166 867.7222416400909 629.7698640525341 874.6569230556488Q623.8673139214516 881.5916044712067 623.8673139214516 892.9762620925903Q623.8673139214516 921.6470446586609 660.8483201861382 921.6470446586609H1077.7442459464073Q1114.2591482400894 921.6470446586609 1114.2591482400894 892.5762376785278Q1114.2591482400894 881.4390560984612 1107.7667938768864 874.1331983804703Q1101.2744395136833 866.8273406624794 1086.7845318317413 864.2375364303589L1035.216557085514 854.9020011425018Q1007.3284376263618 849.9868040084839 1002.180089712143 831.0249171555042Q997.031741797924 812.0630303025246 1010.9605423212051 768.7342738509178L1205.0557861328125 164.79780316352844L1146.4033062458038 83.40646785497665L1352.3214883208275 734.4362615346909Q1372.2231997847557 795.7226947546005 1364.2918138504028 822.394564062357Q1356.36042791605 849.0664333701134 1318.4361326098442 855.9138849973679L1277.1830773353577 863.8002805709839Q1261.237312555313 867.8747900128365 1254.373781889677 874.7331972420216Q1247.510251224041 881.5916044712067 1247.510251224041 892.9762620925903Q1247.510251224041 906.7981000542641 1257.3194676339626 914.2225723564625Q1267.1286840438843 921.6470446586609 1283.967532813549 921.6470446586609H1527.938315808773Q1545.4347608685493 921.6470446586609 1555.2058518230915 914.0225601494312Q1564.9769427776337 906.3980756402016 1564.9769427776337 892.5762376785278Q1564.9769427776337 882.5525850057602 1559.2269410192966 875.2467272877693Q1553.4769392609596 867.9408695697784 1536.912522137165 863.4951838254929L1508.6577535271645 856.2850612998009Q1486.8255536556244 849.5309469103813 1469.6180556416512 823.9913965463638Q1452.410557627678 798.4518461823463 1434.5461996793747 744.5045313239098L1201.958821117878 37.602659463882446Q1193.7724487185478 13.280846953392029 1176.5998149216175 4.165663063526154Q1159.4271811246872 -4.949520826339722 1140.0071090459824 -4.949520826339722Z"/><path transform="translate(3969.5 0)" d="M431.835531771183 894.8301044106483V121.55488258600235Q431.835531771183 97.65845966339111 439.7966633439064 85.39411816000938Q447.7577949166298 73.12977665662766 463.5935602784157 68.17896747589111L506.7638913989067 58.26538974046707Q530.1928464770317 49.518061220645905 530.1928464770317 30.155487775802612Q530.1928464770317 0 491.2695364356041 0H99.90601289272308Q80.56390422582626 0 71.35891610383987 7.853283792734146Q62.153927981853485 15.706567585468292 62.153927981853485 28.670782566070557Q62.153927981853485 38.913063168525696 68.86578100919724 46.433296114206314Q75.57763403654099 53.95352905988693 89.40979439020157 58.541591823101044L134.77007395029068 68.63656604290009Q151.06343787908554 73.4636749625206 158.56697088479996 85.09413036704063Q166.07050389051437 96.72458577156067 166.07050389051437 120.08711266517639V751.2221274375916Q166.07050389051437 769.8237004876137 160.15355297923088 778.4541558921337Q154.2366020679474 787.0846112966537 140.65010076761246 788.9404928088188L82.29937082529068 791.5387269258499Q69.72478234767914 794.136961042881 63.79853081703186 800.6292398869991Q57.87227928638458 807.1215187311172 57.87227928638458 816.8688472509384Q57.87227928638458 828.4059777259827 64.97390985488892 835.6787723898888Q72.07554042339325 842.9515670537949 90.73299270868301 849.519287109375L313.8369999527931 921.9992464780807Q340.2909715771675 931.8991233706474 356.6399684250355 935.9727998375893Q372.98896527290344 940.0464763045311 387.3819307088852 940.0464763045311Q409.59009224176407 940.0464763045311 420.71281200647354 927.4475189745426Q431.835531771183 914.8485616445541 431.835531771183 894.8301044106483ZM404.9069929718971 681.5465992093086 372.3886542916298 714.5970924496651 409.91099750995636 748.6345794200897Q527.4715654850006 857.4729109406471 616.5286605656147 900.6734311878681Q705.5857556462288 943.8739514350891 784.1992415189743 943.8739514350891Q901.7486290931702 943.8739514350891 973.4903296530247 869.601846575737Q1045.2320302128792 795.3297417163849 1045.2320302128792 660.1619529724121V122.42982465028763Q1045.2320302128792 96.95193427801132 1053.8025833368301 84.69763326644897Q1062.373136460781 72.44333225488663 1079.085294663906 67.32129794359207L1115.3742816448212 58.17041552066803Q1138.4607864618301 48.96548843383789 1138.4607864618301 30.155487775802612Q1138.4607864618301 0 1099.1172313690186 0H719.2530298233032Q680.9398201704025 0 680.9398201704025 30.155487775802612Q680.9398201704025 49.518061220645905 704.4263959527016 58.26538974046707L746.4512333273888 67.72136890888214Q765.6226094961166 73.28232502937317 773.231203764677 87.26195904612541Q780.8397980332375 101.24159306287766 780.8397980332375 127.46340888738632V624.664545416832Q780.8397980332375 710.9119600057602 739.591467499733 754.7507824003696Q698.3431369662285 798.5896047949791 629.1164023280144 798.5896047949791Q584.1343932151794 798.5896047949791 538.0749304890633 778.6764038205147Q492.0154677629471 758.7632028460503 442.83771497011185 715.2501123547554ZM1016.4728643894196 681.5465992093086 983.9545257091522 714.5970924496651 1020.1040732264519 750.0073751211166Q1126.5702440142632 853.2916365265846 1208.452912926674 898.5827939808369Q1290.3355818390846 943.8739514350891 1368.3336076140404 943.8739514350891Q1480.3777786493301 943.8739514350891 1545.721630960703 869.292520403862Q1611.0654832720757 794.7110893726349 1626.0282983779907 659.7043544054031L1688.826993882656 123.34502178430557Q1691.816822528839 97.18073356151581 1699.3500598967075 84.43577092885971Q1706.883297264576 71.69080829620361 1723.595455467701 66.8636993765831L1760.169196486473 58.08399325609207Q1773.7725575566292 53.648478865623474 1780.1412116587162 46.35704520344734Q1786.5098657608032 39.06561154127121 1786.5098657608032 28.670782566070557Q1786.5098657608032 15.477768301963806 1777.5430153012276 7.738884150981903Q1768.576164841652 0 1748.9102826714516 0H1356.8737248778343Q1318.5605152249336 0 1318.5605152249336 30.155487775802612Q1318.5605152249336 49.21296447515488 1342.0470910072327 58.26538974046707L1384.0719283819199 67.72136890888214Q1403.2433045506477 73.12977665662766 1412.3468131422997 87.41448414325714Q1421.4503217339516 101.69919162988663 1418.4604930877686 128.37860602140427L1362.130942761898 624.664545416832Q1351.9781036973 710.6644839644432 1317.6207498908043 754.6270443797112Q1283.2633960843086 798.5896047949791 1218.2843526601791 798.5896047949791Q1179.4089864492416 798.5896047949791 1138.7698298096657 777.8195905387402Q1098.1306731700897 757.0495762825012 1053.0307906866074 716.6229080557823Z"/><path transform="translate(5744.7 0)" d="M639.2260100841522 114.62368184328079V131.1235922574997L623.0774329304695 130.0799411535263V744.2858113050461Q623.0774329304695 815.1454805135727 589.5409462153912 853.5464670062065Q556.0044595003128 891.9474534988403 494.51105481386185 891.9474534988403Q433.936279296875 891.9474534988403 402.45504212379456 864.4442454278469Q370.9738049507141 836.9410373568535 370.9738049507141 799.5963459610939V713.819666147232Q370.9738049507141 657.4632427692413 332.6196952164173 624.2158347964287Q294.2655854821205 590.968426823616 228.05548137426376 590.968426823616Q174.20925480127335 590.968426823616 144.62685030698776 618.4179757833481Q115.04444581270218 645.8675247430801 115.04444581270218 695.9699057340622Q115.04444581270218 754.9749106168747 163.27799135446548 811.9229679405689Q211.5115368962288 868.8710252642632 305.68863722682 906.1538604199886Q399.8657375574112 943.4366955757141 537.7099319696426 943.4366955757141Q714.4812942743301 943.4366955757141 800.9627360701561 870.9868735074997Q887.444177865982 798.5370514392853 887.444177865982 672.1952756643295V152.65072971582413Q887.444177865982 122.02816408872604 899.2493734061718 107.35599839687347Q911.0545689463615 92.6838327050209 931.1106457710266 92.6838327050209Q951.4804292321205 92.6838327050209 963.5532836914062 103.47455763816833Q975.626138150692 114.26528257131577 981.919351041317 130.26168191432953Q985.7362886071205 135.793865442276 990.0820365250111 139.25913643836975Q994.4277844429016 142.7244074344635 1000.4820266962051 142.7244074344635Q1009.2683746814728 142.7244074344635 1013.3378362059593 136.47531417012215Q1017.4072977304459 130.2262209057808 1017.4072977304459 119.4974936246872Q1017.4072977304459 91.3707275390625 996.0865114331245 58.41796523332596Q974.7657251358032 25.465202927589417 931.0412343144417 1.6292671859264374Q887.3167434930801 -22.20666855573654 819.6437408924103 -22.20666855573654Q733.5823070406914 -22.20666855573654 686.4041585624218 14.89396920800209Q639.2260100841522 51.99460697174072 639.2260100841522 114.62368184328079ZM69.84102928638458 203.92699491977692Q69.84102928638458 322.6721516251564 173.61255845427513 395.65345510840416Q277.3840876221657 468.6347585916519 475.87548995018005 468.6347585916519Q539.6557950377464 468.6347585916519 587.1845171451569 457.2151023745537Q634.7132392525673 445.79544615745544 671.2834331989288 427.595297396183L654.7753484249115 384.1430891752243Q620.4034107327461 400.04835909605026 585.140580624342 409.17234125733376Q549.8777505159378 418.29632341861725 507.36140364408493 418.29632341861725Q427.7339297533035 418.29632341861725 383.3879337608814 373.05948331952095Q339.0419377684593 327.82264322042465 339.0419377684593 246.6443942785263Q339.0419377684593 166.81024396419525 378.46131032705307 124.78365415334702Q417.8806828856468 82.75706434249878 480.52925300598145 82.75706434249878Q529.8493828177452 82.75706434249878 576.2041573226452 105.75083565711975Q622.5589318275452 128.74460697174072 653.9380576014519 169.67641001939774L671.6668138504028 131.10734099149704Q620.795163333416 57.425778567790985 534.1492353081703 17.533280819654465Q447.50330728292465 -22.359216928482056 349.2048919200897 -22.359216928482056Q225.0983464717865 -22.359216928482056 147.46968787908554 40.45756080746651Q69.84102928638458 103.27433854341507 69.84102928638458 203.92699491977692Z"/><path transform="translate(6767.8 0)" d="M431.835531771183 895.2877029776573V122.01248115301132Q431.835531771183 97.42966037988663 439.4534644186497 85.50851780176163Q447.07139706611633 73.58737522363663 463.1359617114067 68.63656604290009L506.30629283189774 58.49418902397156Q530.1928464770317 49.518061220645905 530.1928464770317 30.155487775802612Q530.1928464770317 0 491.72713500261307 0H99.44841432571411Q80.56390422582626 0 71.35891610383987 7.738884150981903Q62.153927981853485 15.477768301963806 62.153927981853485 28.670782566070557Q62.153927981853485 38.913063168525696 68.5225820839405 46.31889647245407Q74.89123618602753 53.724729776382446 88.9521958231926 58.31279253959656L134.77007395029068 68.63656604290009Q151.06343787908554 73.4636749625206 158.56697088479996 85.32292965054512Q166.07050389051437 97.18218433856964 166.07050389051437 121.45990836620331V752.1373245716095Q166.07050389051437 770.5100983381271 160.03915333747864 778.7973548173904Q154.0078027844429 787.0846112966537 140.42130148410797 788.9404928088188L83.21456795930862 791.5387269258499Q69.95358163118362 794.136961042881 64.14172974228859 800.6292398869991Q58.329877853393555 807.1215187311172 58.329877853393555 817.0976465344429Q58.329877853393555 828.8635762929916 65.43150842189789 835.9075716733932Q72.53313899040222 842.9515670537949 90.73299270868301 849.519287109375L313.60820066928864 921.7704471945763Q340.7485701441765 931.670324087143 356.86876770853996 935.858400195837Q372.98896527290344 940.0464763045311 387.3819307088852 940.0464763045311Q409.3612929582596 940.0464763045311 420.5984123647213 927.6763182580471Q431.835531771183 915.3061602115631 431.835531771183 895.2877029776573ZM405.0595878958702 681.7753984928131 372.5412492156029 715.512289583683 410.5211910009384 749.3209772706032Q526.1952878832817 853.4340135455132 609.8066950440407 898.6539824903011Q693.4181022047997 943.8739514350891 767.9536712169647 943.8739514350891Q879.521566927433 943.8739514350891 941.557168006897 870.5509164631367Q1003.5927690863609 797.2278814911842 1018.3267849087715 665.6531357765198L1081.125480413437 125.63301461935043Q1084.11530905962 99.23992711305618 1091.4197471439838 85.92296627163887Q1098.7241852283478 72.60600543022156 1116.3515405654907 67.77889651060104L1156.5860701203346 58.31279253959656Q1170.6470297574997 53.87727814912796 1177.0156838595867 46.471444845199585Q1183.3843379616737 39.06561154127121 1183.3843379616737 28.670782566070557Q1183.3843379616737 15.477768301963806 1174.417487502098 7.738884150981903Q1165.4506370425224 0 1145.784754872322 0H748.4858135581017Q709.715005338192 0 709.715005338192 30.155487775802612Q709.715005338192 49.21296447515488 733.6591796875 58.49418902397156L778.429608464241 68.63656604290009Q796.685787498951 73.58737522363663 805.5604968070984 86.84248593449593Q814.4352061152458 100.09759664535522 811.4453774690628 125.63301461935043L754.4294292926788 630.6133267879486Q744.2765902280807 715.6980682015419 712.20722925663 757.1438364982605Q680.1378682851791 798.5896047949791 616.9892191290855 798.5896047949791Q576.7715247273445 798.5896047949791 533.9892424046993 777.6619797646999Q491.20696008205414 756.7343547344208 443.4479084610939 715.2501123547554Z"/><path transform="translate(7937.0 0)" d="M161.77740520238876 874.8693495988846Q146.6132390499115 874.8693495988846 134.69986987113953 886.3784794211388Q122.78650069236755 897.887609243393 118.883216381073 920.1923643946648L49.19724100828171 1380.5247924923897Q32.721576035022736 1472.2481881976128 63.90042880177498 1521.3436489403248Q95.07928156852722 1570.4391096830368 170.12966060638428 1570.4391096830368Q245.78001523017883 1570.4391096830368 275.3970789015293 1520.6818842589855Q305.0141425728798 1470.9246588349342 286.70970273017883 1381.1247680783272L207.6409289240837 919.4500117897987Q202.76649272441864 895.9453054666519 191.15314909815788 885.4073275327682Q179.53980547189713 874.8693495988846 161.77740520238876 874.8693495988846Z"/><path transform="translate(8253.2 0)" d="M472.94857239723206 42.00088530778885Q541.7781727910042 42.00088530778885 580.5084386765957 77.04975470900536Q619.2387045621872 112.09862411022186 619.2387045621872 166.83518934249878Q619.2387045621872 202.63913387060165 602.998581290245 231.7039246559143Q586.7584580183029 260.76871544122696 543.9561882317066 285.0808601975441Q501.1539184451103 309.39300495386124 421.90560549497604 330.21533554792404Q281.29325157403946 364.5134531855583 203.0674649477005 411.8886059820652Q124.84167832136154 459.2637587785721 93.79600250720978 520.3896330296993Q62.750326693058014 581.5155072808266 62.750326693058014 656.6183010339737Q62.750326693058014 790.6781796216965 156.22507220506668 867.6099726259708Q249.69981771707535 944.5417656302452 419.7560983300209 944.5417656302452Q484.59136402606964 944.5417656302452 525.8709103167057 933.1511173546314Q567.1504566073418 921.7604690790176 592.009810090065 910.2460827827454Q616.8691635727882 898.7316964864731 632.3488999009132 898.7316964864731Q649.7437578439713 898.7316964864731 666.3442023694515 910.2460827827454Q682.9446468949318 921.7604690790176 699.1543676257133 933.2748553752899Q715.3640883564949 944.7892416715622 731.4249259233475 944.7892416715622Q742.4010537266731 944.7892416715622 751.32125005126 937.8308588564396Q760.2414463758469 930.872476041317 765.695637524128 911.2236046791077L827.0626528859138 678.3784584999084Q835.001549243927 653.456867992878 831.7982161045074 637.6452013850212Q828.5948829650879 621.8335347771645 812.8509618639946 615.3793436288834Q797.3545168042183 609.5539761781693 785.7080346047878 615.3700430095196Q774.0615524053574 621.1861098408699 763.2956226468086 637.2825304865837Q713.9860225319862 727.5721294879913 661.6327774226665 780.7888604700565Q609.2795323133469 834.0055914521217 552.765056014061 857.274939596653Q496.2505797147751 880.5442877411842 433.43864703178406 880.5442877411842Q351.7560728788376 880.5442877411842 309.5130400955677 844.5996699035168Q267.2700073122978 808.6550520658493 267.2700073122978 748.4236102700233Q267.2700073122978 710.9537326693535 285.74222752451897 680.6270883381367Q304.2144477367401 650.3004440069199 353.8054801225662 624.8552083671093Q403.39651250839233 599.4099727272987 495.69190859794617 576.2554852962494Q616.8048807382584 547.2639617323875 688.4850903451443 502.9642413556576Q760.1652999520302 458.6645209789276 791.658411771059 397.9623637497425Q823.1515235900879 337.2602065205574 823.1515235900879 258.4283947944641Q823.1515235900879 174.10714173316956 780.4969145059586 110.71016556024551Q737.8423054218292 47.31318938732147 662.9573641419411 12.200699836015701Q588.0724228620529 -22.91178971529007 490.7289389371872 -22.91178971529007Q429.24783873558044 -22.91178971529007 389.48102727532387 -9.10583671927452Q349.7142158150673 4.700116276741028 324.486287266016 18.382331252098083Q299.2583587169647 32.06454622745514 281.95146691799164 32.06454622745514Q265.9582993388176 32.06454622745514 249.05114963650703 18.878078550100327Q232.14399993419647 5.691610872745514 215.60723131895065 -7.618594825267792Q199.07046270370483 -20.928800523281097 184.06553333997726 -20.928800523281097Q172.9081311225891 -20.928800523281097 164.482016146183 -12.48406982421875Q156.05590116977692 -4.039339125156403 152.20001965761185 16.21105170249939L111.44529491662979 227.7482241988182Q106.23850429058075 256.98359686136246 109.67485165596008 271.2106204330921Q113.11119902133942 285.4376440048218 127.35173815488815 291.4731339812279Q142.24820762872696 297.803549349308 153.80399158596992 290.3357903957367Q165.3597755432129 282.8680314421654 177.53418856859207 263.7257229089737Q245.93162137269974 143.7565593123436 321.2298698723316 92.87872231006622Q396.5281183719635 42.00088530778885 472.94857239723206 42.00088530778885Z"/><path transform="translate(9137.3 0)" d=""/></g><g transform="translate(598.42 882.00) scale(0.05900 -0.05900)" fill="#d1387b"><path transform="translate(0.0 0)" d="M994.8531016409397 1424.234619140625Q1123.0119711458683 1421.8837477862835 1222.0124578028917 1367.1094739288092Q1321.0129444599152 1312.3352000713348 1382.6605019569397 1213.7143339514732Q1444.3080594539642 1115.0934678316116 1460.2264258116484 980.0909381210804Q1476.1447921693325 845.0884084105492 1437.0807662904263 681.6623730063438Q1396.0719492137432 510.2656660079956 1313.5991733968258 377.6737660765648Q1231.1263975799084 245.08186614513397 1118.8733986020088 154.38356955349445Q1006.6203996241093 63.685272961854935 874.2915982306004 18.539035230875015Q741.9627968370914 -26.607202500104904 600.2419286072254 -23.3654702603817Q470.3617108464241 -20.742390364408493 369.84683802723885 34.024435579776764Q269.3319652080536 88.79126152396202 208.44122226536274 188.85655763745308Q147.5504793226719 288.92185375094414 135.32264997065067 429.0842386633158Q123.09482061862946 569.2466235756874 169.95648369193077 742.5215029120445Q210.67849332094193 892.6391241550446 290.5825988352299 1018.4396216124296Q370.4867043495178 1144.2401190698147 480.54865665733814 1236.262656673789Q590.6106089651585 1328.2851942777634 721.6361703127623 1377.5714466571808Q852.6617316603661 1426.8576990365982 994.8531016409397 1424.234619140625ZM623.6808191537857 34.11727601289749Q702.3051082491875 31.766404658555984 781.203154027462 65.5248167514801Q860.1011998057365 99.28322884440422 933.9590927064419 176.54653288424015Q1007.8169856071472 253.80983692407608 1071.713871717453 380.7951663583517Q1135.6107578277588 507.78049579262733 1183.897139787674 691.3390420377254Q1210.4242196381092 793.6901362836361 1222.4906382709742 876.2417515218258Q1234.557056903839 958.7933667600155 1233.8641692996025 1024.1289017796516Q1233.7661831080914 1136.3307698071003 1199.4257116168737 1211.3940533846617Q1165.0852401256561 1286.457336962223 1107.219039812684 1325.4554308652878Q1049.352839499712 1364.4535247683525 977.0841082036495 1367.0766046643257Q895.5537507236004 1370.2441016435623 813.670657813549 1331.6548831313848Q731.7875649034977 1293.0656646192074 657.6461356878281 1213.15901376307Q583.5047064721584 1133.2523629069328 522.6122289001942 1012.0501170307398Q461.7197513282299 890.8478711545467 422.0028306245804 729.0771024227142Q394.0536794066429 617.0608502924442 381.13233058154583 529.6213830262423Q368.21098175644875 442.1819157600403 367.6967440545559 375.3826273679733Q366.2018297314644 204.42113053798676 436.9512376487255 120.92718702554703Q507.70064556598663 37.4332435131073 623.6808191537857 34.11727601289749Z"/><path transform="translate(1456.2 0)" d="M852.7737771868706 381.32412698864937 782.5440832078457 331.1088317632675 1400.8857011795044 1332.5681004822254Q1426.3556471168995 1373.3262461721897 1452.6693850755692 1386.6631230860949Q1478.9831230342388 1400 1510.1926599740982 1400H1743.6528800725937Q1763.3348191082478 1400 1770.5705029815435 1393.40042039752Q1777.8061868548393 1386.8008407950401 1777.1132992506027 1374.7345716357231Q1776.4204116463661 1361.4649200737476 1767.20183737576 1353.7741440683603Q1757.983263105154 1346.083368062973 1743.1285845637321 1342.3457021713257L1664.9223172664642 1327.8335414230824Q1645.449708789587 1323.7338512539864 1632.124931588769 1309.4241258502007Q1618.800154387951 1295.114400446415 1613.469291061163 1268.3834599256516Q1604.3422208726406 1220.3646315932274 1588.9754911363125 1145.632906615734Q1573.6087613999844 1070.9011816382408 1554.7976280599833 979.5021566599607Q1535.9864947199821 888.1031316816807 1515.5762072652578 788.6259684413671Q1495.1659198105335 689.1488052010536 1475.2927499860525 590.9941863715649Q1455.4195801615715 492.8395675420761 1437.7206517010927 403.9930922091007Q1420.021723240614 315.14661687612534 1406.691091671586 245.3325315862894Q1393.3604601025581 175.51844629645348 1386.6998288333416 133.82912701368332Q1381.9767618477345 108.30121919512749 1389.0518681108952 91.5243893712759Q1396.1269743740559 74.74755954742432 1417.6521061062813 69.72853308916092L1498.554334282875 55.86172005534172Q1511.637500435114 52.27895313501358 1518.3980652689934 46.16922105848789Q1525.1586301028728 40.059488981962204 1524.119298696518 29.29462617635727Q1523.4264110922813 15.263260871171951 1513.1303494423628 7.631630435585976Q1502.8342877924442 0 1483.4052339196205 0H1029.0243062078953Q1009.3708425760269 0 1001.3473696857691 7.49823072552681Q993.3238967955112 14.99646145105362 993.6703405976295 27.51831352710724Q994.7096720039845 40.689978897571564 1003.9860300570726 47.42108675837517Q1013.2623881101608 54.15219461917877 1025.3628387153149 57.38851773738861L1102.449239730835 70.45802852511406Q1126.3204803168774 75.40281972289085 1141.4406883120537 90.96728272736073Q1156.56089630723 106.5317457318306 1162.9676988720894 137.48781841993332Q1177.4981108903885 210.00376185774803 1194.8041395395994 292.98167802393436Q1212.1101681888103 375.9595941901207 1231.371631294489 466.7862133383751Q1250.6330944001675 557.6128324866295 1270.513209849596 652.7682950496674Q1290.3933252990246 747.9237576127052 1310.1841157972813 844.8515771776438Q1329.974906295538 941.7793967425823 1348.3712793588638 1037.2864918410778Q1366.7676524221897 1132.7935869395733 1382.7967216670513 1223.3678882420063L1411.7580516338348 1237.7652498483658L773.0057642459869 192.9657537341118Q753.5736898779869 164.54207095503807 738.9852253049612 152.59943662583828Q724.3967607319355 140.6568022966385 703.7219347953796 140.6568022966385Q686.9763195812702 140.6568022966385 675.8227717727423 155.96235078573227Q664.6692239642143 171.26789927482605 659.7555937170982 195.79292342066765Q649.5155654549599 269.4941648542881 638.4226649403572 351.69520078599453Q627.3297644257545 433.89623671770096 615.8404265642166 521.6514808684587Q604.3510887026787 609.4067250192165 592.1614153236151 700.051460891962Q579.9717419445515 790.6961967647076 567.5849472731352 881.6931508928537Q555.1981526017189 972.6901050209999 542.5303396880627 1061.1948915421963Q529.8625267744064 1149.6996780633926 517.0062347948551 1232.3318129479885L548.2603441774845 1240.1358785927296L239.7489651143551 218.9661384820938Q220.19450524449348 149.09249925613403 235.00899389386177 114.06376807391644Q249.82348254323006 79.03503689169884 295.3398747444153 68.10315537452698L347.07749462127686 56.73325756192207Q372.5706124007702 47.81618133187294 371.184837192297 30.166163682937622Q369.7990619838238 16.134798377752304 358.37434397637844 8.067399188876152Q346.9496259689331 0 326.22835552692413 0H-1.5509353876113892Q-22.169495165348053 0 -30.749751389026642 7.686542317271233Q-39.33000761270523 15.373084634542465 -38.63712000846863 27.77119868993759Q-37.944232404232025 41.047278702259064 -28.442445129156113 48.555171117186546Q-18.9406578540802 56.06306353211403 -3.301533967256546 60.16006815433502L39.711352705955505 69.14419075846672Q69.40959665179253 76.08488935232162 94.55119834840298 93.65436637401581Q119.69280004501343 111.22384339570999 141.2366282939911 148.61215230822563Q162.78045654296875 186.00046122074127 181.09062719345093 250.76257067918777L483.09447917342186 1256.9260441958904Q492.77791783213615 1288.2506076395512 485.7375669628382 1305.7350915819407Q478.6972160935402 1323.2195755243301 455.5927634239197 1328.118606865406L375.3941880464554 1343.5325225293636Q361.36528715491295 1348.1610493063927 355.27251622080803 1354.6172251850367Q349.1797452867031 1361.0734010636806 350.219076693058 1371.8382638692856Q350.9119642972946 1385.448950111866 361.8202308267355 1392.724475055933Q372.7284973561764 1400 390.75245264172554 1400H635.5493874549866Q668.3943578898907 1400 688.8867267370224 1383.8927143365145Q709.3790955841541 1367.785428673029 716.5300305187702 1326.0121910572052Q726.7415833771229 1258.301410138607 736.953988224268 1184.3303077816963Q747.166393071413 1110.3592054247856 757.8123528957367 1032.3686238527298Q768.4583127200603 954.378042280674 779.6739317923784 873.3691567927599Q790.8895508646965 792.3602713048458 802.671614959836 709.9583375453949Q814.4536790549755 627.556403785944 827.1289662718773 545.0522575229406Q839.8042534887791 462.5481112599373 852.7737771868706 381.32412698864937Z"/></g>
<rect x="0" y="0" width="818" height="946" filter="url(#grain)" opacity="0.045"/>
</g>
</svg>