<svg xmlns="http://www.w3.org/2000/svg" viewBox="0 0 818 946" width="818" height="946" role="img" aria-label="Scan to visit Newman's OM — fresh sourdough, baked in Jacaranda Cay">
<defs>
<linearGradient id="dot" x1="0" y1="0" x2="1" y2="1">
  <stop offset="0" stop-color="#e85b96"/><stop offset=".4" stop-color="#d1387b"/>
  <stop offset=".75" stop-color="#b2356c"/><stop offset="1" stop-color="#7a1f47"/></linearGradient>
<linearGradient id="gold" x1="0" y1="0" x2="1" y2="1">
  <stop offset="0" stop-color="#e0a53c"/><stop offset="1" stop-color="#c78a2a"/></linearGradient>
<linearGradient id="bar" x1="0" y1="0" x2="1" y2="0">
  <stop offset="0" stop-color="#ff7fb2"/><stop offset=".55" stop-color="#e85b96"/>
  <stop offset="1" stop-color="#e0a53c"/></linearGradient>
<radialGradient id="card" cx="50%" cy="48%" r="72%">
  <stop offset="0" stop-color="#fffdfc"/><stop offset=".5" stop-color="#fff4f8"/>
  <stop offset=".82" stop-color="#ffe4ee"/><stop offset="1" stop-color="#ffd2e4"/></radialGradient>
<radialGradient id="med" cx="50%" cy="40%" r="70%">
  <stop offset="0" stop-color="#ffffff"/><stop offset="1" stop-color="#ffdcea"/></radialGradient>
<filter id="grain"><feTurbulence type="fractalNoise" baseFrequency="0.9" numOctaves="2" stitchTiles="stitch"/>
  <feColorMatrix type="saturate" values="0"/></filter>
<filter id="soft" x="-30%" y="-30%" width="160%" height="160%"><feGaussianBlur stdDeviation="16"/></filter>
<clipPath id="cardclip"><rect x="0" y="0" width="818" height="946" rx="0"/></clipPath>
<path id="star" d="M0,-7 C1,-2 2,-1 7,0 C2,1 1,2 0,7 C-1,2 -2,1 -7,0 C-2,-1 -1,-2 0,-7 Z"/>
</defs>
<rect x="0" y="0" width="818" height="946" fill="url(#card)"/>
<g clip-path="url(#cardclip)">
<text x="165.0" y="76" text-anchor="start" font-family="Fraunces,Georgia,serif" font-size="31" font-weight="500" font-style="italic" fill="#7a5060">Baked every day,</text><text x="443.0" y="76" text-anchor="start" font-family="Fraunces,Georgia,serif" font-size="31" font-weight="500" font-style="italic" fill="#d1387b">baked for you</text>
<g fill="#d1387b">
<circle cx="299.0" cy="131.0" r="11.4"/>
<circle cx="321.0" cy="131.0" r="11.4"/>
<circle cx="343.0" cy="131.0" r="11.4"/>
<circle cx="365.0" cy="131.0" r="11.4"/>
<circle cx="409.0" cy="131.0" r="11.4"/>
<circle cx="431.0" cy="131.0" r="11.4"/>
<circle cx="453.0" cy="131.0" r="11.4"/>
<circle cx="497.0" cy="131.0" r="11.4"/>
<circle cx="299.0" cy="153.0" r="11.4"/>
<circle cx="321.0" cy="153.0" r="11.4"/>
<circle cx="365.0" cy="153.0" r="11.4"/>
<circle cx="409.0" cy="153.0" r="11.4"/>
<circle cx="453.0" cy="153.0" r="11.4"/>
<circle cx="497.0" cy="153.0" r="11.4"/>
<circle cx="541.0" cy="153.0" r="11.4"/>
<circle cx="387.0" cy="175.0" r="11.4"/>
<circle cx="409.0" cy="175.0" r="11.4"/>
<circle cx="497.0" cy="175.0" r="11.4"/>
<circle cx="519.0" cy="175.0" r="11.4"/>
<circle cx="343.0" cy="197.0" r="11.4"/>
<circle cx="365.0" cy="197.0" r="11.4"/>
<circle cx="431.0" cy="197.0" r="11.4"/>
<circle cx="475.0" cy="197.0" r="11.4"/>
<circle cx="541.0" cy="197.0" r="11.4"/>
<circle cx="277.0" cy="219.0" r="11.4"/>
<circle cx="343.0" cy="219.0" r="11.4"/>
<circle cx="365.0" cy="219.0" r="11.4"/>
<circle cx="409.0" cy="219.0" r="11.4"/>
<circle cx="431.0" cy="219.0" r="11.4"/>
<circle cx="453.0" cy="219.0" r="11.4"/>
<circle cx="519.0" cy="219.0" r="11.4"/>
<circle cx="299.0" cy="241.0" r="11.4"/>
<circle cx="321.0" cy="241.0" r="11.4"/>
<circle cx="409.0" cy="241.0" r="11.4"/>
<circle cx="453.0" cy="241.0" r="11.4"/>
<circle cx="475.0" cy="241.0" r="11.4"/>
<circle cx="497.0" cy="241.0" r="11.4"/>
<circle cx="519.0" cy="241.0" r="11.4"/>
<circle cx="541.0" cy="241.0" r="11.4"/>
<circle cx="277.0" cy="263.0" r="11.4"/>
<circle cx="321.0" cy="263.0" r="11.4"/>
<circle cx="365.0" cy="263.0" r="11.4"/>
<circle cx="409.0" cy="263.0" r="11.4"/>
<circle cx="453.0" cy="263.0" r="11.4"/>
<circle cx="497.0" cy="263.0" r="11.4"/>
<circle cx="541.0" cy="263.0" r="11.4"/>
<circle cx="277.0" cy="285.0" r="11.4"/>
<circle cx="299.0" cy="285.0" r="11.4"/>
<circle cx="321.0" cy="285.0" r="11.4"/>
<circle cx="453.0" cy="285.0" r="11.4"/>
<circle cx="145.0" cy="307.0" r="11.4"/>
<circle cx="167.0" cy="307.0" r="11.4"/>
<circle cx="233.0" cy="307.0" r="11.4"/>
<circle cx="255.0" cy="307.0" r="11.4"/>
<circle cx="277.0" cy="307.0" r="11.4"/>
<circle cx="343.0" cy="307.0" r="11.4"/>
<circle cx="365.0" cy="307.0" r="11.4"/>
<circle cx="431.0" cy="307.0" r="11.4"/>
<circle cx="497.0" cy="307.0" r="11.4"/>
<circle cx="519.0" cy="307.0" r="11.4"/>
<circle cx="563.0" cy="307.0" r="11.4"/>
<circle cx="585.0" cy="307.0" r="11.4"/>
<circle cx="629.0" cy="307.0" r="11.4"/>
<circle cx="123.0" cy="329.0" r="11.4"/>
<circle cx="145.0" cy="329.0" r="11.4"/>
<circle cx="211.0" cy="329.0" r="11.4"/>
<circle cx="277.0" cy="329.0" r="11.4"/>
<circle cx="299.0" cy="329.0" r="11.4"/>
<circle cx="343.0" cy="329.0" r="11.4"/>
<circle cx="365.0" cy="329.0" r="11.4"/>
<circle cx="497.0" cy="329.0" r="11.4"/>
<circle cx="563.0" cy="329.0" r="11.4"/>
<circle cx="585.0" cy="329.0" r="11.4"/>
<circle cx="607.0" cy="329.0" r="11.4"/>
<circle cx="629.0" cy="329.0" r="11.4"/>
<circle cx="651.0" cy="329.0" r="11.4"/>
<circle cx="673.0" cy="329.0" r="11.4"/>
<circle cx="717.0" cy="329.0" r="11.4"/>
<circle cx="101.0" cy="351.0" r="11.4"/>
<circle cx="167.0" cy="351.0" r="11.4"/>
<circle cx="189.0" cy="351.0" r="11.4"/>
<circle cx="211.0" cy="351.0" r="11.4"/>
<circle cx="233.0" cy="351.0" r="11.4"/>
<circle cx="255.0" cy="351.0" r="11.4"/>
<circle cx="277.0" cy="351.0" r="11.4"/>
<circle cx="299.0" cy="351.0" r="11.4"/>
<circle cx="343.0" cy="351.0" r="11.4"/>
<circle cx="409.0" cy="351.0" r="11.4"/>
<circle cx="453.0" cy="351.0" r="11.4"/>
<circle cx="497.0" cy="351.0" r="11.4"/>
<circle cx="585.0" cy="351.0" r="11.4"/>
<circle cx="607.0" cy="351.0" r="11.4"/>
<circle cx="629.0" cy="351.0" r="11.4"/>
<circle cx="695.0" cy="351.0" r="11.4"/>
<circle cx="123.0" cy="373.0" r="11.4"/>
<circle cx="145.0" cy="373.0" r="11.4"/>
<circle cx="189.0" cy="373.0" r="11.4"/>
<circle cx="299.0" cy="373.0" r="11.4"/>
<circle cx="321.0" cy="373.0" r="11.4"/>
<circle cx="343.0" cy="373.0" r="11.4"/>
<circle cx="365.0" cy="373.0" r="11.4"/>
<circle cx="409.0" cy="373.0" r="11.4"/>
<circle cx="431.0" cy="373.0" r="11.4"/>
<circle cx="475.0" cy="373.0" r="11.4"/>
<circle cx="497.0" cy="373.0" r="11.4"/>
<circle cx="541.0" cy="373.0" r="11.4"/>
<circle cx="607.0" cy="373.0" r="11.4"/>
<circle cx="629.0" cy="373.0" r="11.4"/>
<circle cx="717.0" cy="373.0" r="11.4"/>
<circle cx="101.0" cy="395.0" r="11.4"/>
<circle cx="167.0" cy="395.0" r="11.4"/>
<circle cx="189.0" cy="395.0" r="11.4"/>
<circle cx="211.0" cy="395.0" r="11.4"/>
<circle cx="233.0" cy="395.0" r="11.4"/>
<circle cx="255.0" cy="395.0" r="11.4"/>
<circle cx="277.0" cy="395.0" r="11.4"/>
<circle cx="299.0" cy="395.0" r="11.4"/>
<circle cx="321.0" cy="395.0" r="11.4"/>
<circle cx="365.0" cy="395.0" r="11.4"/>
<circle cx="475.0" cy="395.0" r="11.4"/>
<circle cx="519.0" cy="395.0" r="11.4"/>
<circle cx="563.0" cy="395.0" r="11.4"/>
<circle cx="607.0" cy="395.0" r="11.4"/>
<circle cx="651.0" cy="395.0" r="11.4"/>
<circle cx="673.0" cy="395.0" r="11.4"/>
<circle cx="695.0" cy="395.0" r="11.4"/>
<circle cx="717.0" cy="395.0" r="11.4"/>
<circle cx="145.0" cy="417.0" r="11.4"/>
<circle cx="277.0" cy="417.0" r="11.4"/>
<circle cx="299.0" cy="417.0" r="11.4"/>
<circle cx="365.0" cy="417.0" r="11.4"/>
<circle cx="431.0" cy="417.0" r="11.4"/>
<circle cx="475.0" cy="417.0" r="11.4"/>
<circle cx="497.0" cy="417.0" r="11.4"/>
<circle cx="519.0" cy="417.0" r="11.4"/>
<circle cx="585.0" cy="417.0" r="11.4"/>
<circle cx="607.0" cy="417.0" r="11.4"/>
<circle cx="651.0" cy="417.0" r="11.4"/>
<circle cx="673.0" cy="417.0" r="11.4"/>
<circle cx="717.0" cy="417.0" r="11.4"/>
<circle cx="167.0" cy="439.0" r="11.4"/>
<circle cx="233.0" cy="439.0" r="11.4"/>
<circle cx="321.0" cy="439.0" r="11.4"/>
<circle cx="387.0" cy="439.0" r="11.4"/>
<circle cx="453.0" cy="439.0" r="11.4"/>
<circle cx="519.0" cy="439.0" r="11.4"/>
<circle cx="585.0" cy="439.0" r="11.4"/>
<circle cx="607.0" cy="439.0" r="11.4"/>
<circle cx="629.0" cy="439.0" r="11.4"/>
<circle cx="651.0" cy="439.0" r="11.4"/>
<circle cx="695.0" cy="439.0" r="11.4"/>
<circle cx="717.0" cy="439.0" r="11.4"/>
<circle cx="123.0" cy="461.0" r="11.4"/>
<circle cx="145.0" cy="461.0" r="11.4"/>
<circle cx="255.0" cy="461.0" r="11.4"/>
<circle cx="277.0" cy="461.0" r="11.4"/>
<circle cx="299.0" cy="461.0" r="11.4"/>
<circle cx="365.0" cy="461.0" r="11.4"/>
<circle cx="453.0" cy="461.0" r="11.4"/>
<circle cx="475.0" cy="461.0" r="11.4"/>
<circle cx="519.0" cy="461.0" r="11.4"/>
<circle cx="541.0" cy="461.0" r="11.4"/>
<circle cx="585.0" cy="461.0" r="11.4"/>
<circle cx="629.0" cy="461.0" r="11.4"/>
<circle cx="651.0" cy="461.0" r="11.4"/>
<circle cx="145.0" cy="483.0" r="11.4"/>
<circle cx="189.0" cy="483.0" r="11.4"/>
<circle cx="211.0" cy="483.0" r="11.4"/>
<circle cx="233.0" cy="483.0" r="11.4"/>
<circle cx="255.0" cy="483.0" r="11.4"/>
<circle cx="343.0" cy="483.0" r="11.4"/>
<circle cx="431.0" cy="483.0" r="11.4"/>
<circle cx="453.0" cy="483.0" r="11.4"/>
<circle cx="519.0" cy="483.0" r="11.4"/>
<circle cx="541.0" cy="483.0" r="11.4"/>
<circle cx="563.0" cy="483.0" r="11.4"/>
<circle cx="607.0" cy="483.0" r="11.4"/>
<circle cx="629.0" cy="483.0" r="11.4"/>
<circle cx="651.0" cy="483.0" r="11.4"/>
<circle cx="167.0" cy="505.0" r="11.4"/>
<circle cx="189.0" cy="505.0" r="11.4"/>
<circle cx="211.0" cy="505.0" r="11.4"/>
<circle cx="255.0" cy="505.0" r="11.4"/>
<circle cx="299.0" cy="505.0" r="11.4"/>
<circle cx="365.0" cy="505.0" r="11.4"/>
<circle cx="387.0" cy="505.0" r="11.4"/>
<circle cx="409.0" cy="505.0" r="11.4"/>
<circle cx="453.0" cy="505.0" r="11.4"/>
<circle cx="475.0" cy="505.0" r="11.4"/>
<circle cx="497.0" cy="505.0" r="11.4"/>
<circle cx="651.0" cy="505.0" r="11.4"/>
<circle cx="101.0" cy="527.0" r="11.4"/>
<circle cx="167.0" cy="527.0" r="11.4"/>
<circle cx="233.0" cy="527.0" r="11.4"/>
<circle cx="255.0" cy="527.0" r="11.4"/>
<circle cx="277.0" cy="527.0" r="11.4"/>
<circle cx="343.0" cy="527.0" r="11.4"/>
<circle cx="365.0" cy="527.0" r="11.4"/>
<circle cx="541.0" cy="527.0" r="11.4"/>
<circle cx="585.0" cy="527.0" r="11.4"/>
<circle cx="607.0" cy="527.0" r="11.4"/>
<circle cx="629.0" cy="527.0" r="11.4"/>
<circle cx="651.0" cy="527.0" r="11.4"/>
<circle cx="673.0" cy="527.0" r="11.4"/>
<circle cx="145.0" cy="549.0" r="11.4"/>
<circle cx="211.0" cy="549.0" r="11.4"/>
<circle cx="277.0" cy="549.0" r="11.4"/>
<circle cx="321.0" cy="549.0" r="11.4"/>
<circle cx="343.0" cy="549.0" r="11.4"/>
<circle cx="365.0" cy="549.0" r="11.4"/>
<circle cx="387.0" cy="549.0" r="11.4"/>
<circle cx="409.0" cy="549.0" r="11.4"/>
<circle cx="431.0" cy="549.0" r="11.4"/>
<circle cx="453.0" cy="549.0" r="11.4"/>
<circle cx="475.0" cy="549.0" r="11.4"/>
<circle cx="563.0" cy="549.0" r="11.4"/>
<circle cx="585.0" cy="549.0" r="11.4"/>
<circle cx="629.0" cy="549.0" r="11.4"/>
<circle cx="651.0" cy="549.0" r="11.4"/>
<circle cx="673.0" cy="549.0" r="11.4"/>
<circle cx="717.0" cy="549.0" r="11.4"/>
<circle cx="123.0" cy="571.0" r="11.4"/>
<circle cx="167.0" cy="571.0" r="11.4"/>
<circle cx="211.0" cy="571.0" r="11.4"/>
<circle cx="233.0" cy="571.0" r="11.4"/>
<circle cx="255.0" cy="571.0" r="11.4"/>
<circle cx="277.0" cy="571.0" r="11.4"/>
<circle cx="321.0" cy="571.0" r="11.4"/>
<circle cx="343.0" cy="571.0" r="11.4"/>
<circle cx="365.0" cy="571.0" r="11.4"/>
<circle cx="387.0" cy="571.0" r="11.4"/>
<circle cx="431.0" cy="571.0" r="11.4"/>
<circle cx="453.0" cy="571.0" r="11.4"/>
<circle cx="475.0" cy="571.0" r="11.4"/>
<circle cx="541.0" cy="571.0" r="11.4"/>
<circle cx="563.0" cy="571.0" r="11.4"/>
<circle cx="585.0" cy="571.0" r="11.4"/>
<circle cx="607.0" cy="571.0" r="11.4"/>
<circle cx="629.0" cy="571.0" r="11.4"/>
<circle cx="651.0" cy="571.0" r="11.4"/>
<circle cx="673.0" cy="571.0" r="11.4"/>
<circle cx="695.0" cy="571.0" r="11.4"/>
<circle cx="717.0" cy="571.0" r="11.4"/>
<circle cx="277.0" cy="593.0" r="11.4"/>
<circle cx="299.0" cy="593.0" r="11.4"/>
<circle cx="321.0" cy="593.0" r="11.4"/>
<circle cx="387.0" cy="593.0" r="11.4"/>
<circle cx="453.0" cy="593.0" r="11.4"/>
<circle cx="475.0" cy="593.0" r="11.4"/>
<circle cx="541.0" cy="593.0" r="11.4"/>
<circle cx="629.0" cy="593.0" r="11.4"/>
<circle cx="651.0" cy="593.0" r="11.4"/>
<circle cx="695.0" cy="593.0" r="11.4"/>
<circle cx="717.0" cy="593.0" r="11.4"/>
<circle cx="277.0" cy="615.0" r="11.4"/>
<circle cx="299.0" cy="615.0" r="11.4"/>
<circle cx="321.0" cy="615.0" r="11.4"/>
<circle cx="365.0" cy="615.0" r="11.4"/>
<circle cx="409.0" cy="615.0" r="11.4"/>
<circle cx="475.0" cy="615.0" r="11.4"/>
<circle cx="519.0" cy="615.0" r="11.4"/>
<circle cx="541.0" cy="615.0" r="11.4"/>
<circle cx="585.0" cy="615.0" r="11.4"/>
<circle cx="629.0" cy="615.0" r="11.4"/>
<circle cx="673.0" cy="615.0" r="11.4"/>
<circle cx="695.0" cy="615.0" r="11.4"/>
<circle cx="321.0" cy="637.0" r="11.4"/>
<circle cx="409.0" cy="637.0" r="11.4"/>
<circle cx="541.0" cy="637.0" r="11.4"/>
<circle cx="629.0" cy="637.0" r="11.4"/>
<circle cx="695.0" cy="637.0" r="11.4"/>
<circle cx="717.0" cy="637.0" r="11.4"/>
<circle cx="321.0" cy="659.0" r="11.4"/>
<circle cx="343.0" cy="659.0" r="11.4"/>
<circle cx="365.0" cy="659.0" r="11.4"/>
<circle cx="387.0" cy="659.0" r="11.4"/>
<circle cx="475.0" cy="659.0" r="11.4"/>
<circle cx="541.0" cy="659.0" r="11.4"/>
<circle cx="563.0" cy="659.0" r="11.4"/>
<circle cx="585.0" cy="659.0" r="11.4"/>
<circle cx="607.0" cy="659.0" r="11.4"/>
<circle cx="629.0" cy="659.0" r="11.4"/>
<circle cx="651.0" cy="659.0" r="11.4"/>
<circle cx="673.0" cy="659.0" r="11.4"/>
<circle cx="717.0" cy="659.0" r="11.4"/>
<circle cx="277.0" cy="681.0" r="11.4"/>
<circle cx="299.0" cy="681.0" r="11.4"/>
<circle cx="321.0" cy="681.0" r="11.4"/>
<circle cx="387.0" cy="681.0" r="11.4"/>
<circle cx="409.0" cy="681.0" r="11.4"/>
<circle cx="431.0" cy="681.0" r="11.4"/>
<circle cx="475.0" cy="681.0" r="11.4"/>
<circle cx="497.0" cy="681.0" r="11.4"/>
<circle cx="519.0" cy="681.0" r="11.4"/>
<circle cx="629.0" cy="681.0" r="11.4"/>
<circle cx="651.0" cy="681.0" r="11.4"/>
<circle cx="695.0" cy="681.0" r="11.4"/>
<circle cx="277.0" cy="703.0" r="11.4"/>
<circle cx="299.0" cy="703.0" r="11.4"/>
<circle cx="365.0" cy="703.0" r="11.4"/>
<circle cx="409.0" cy="703.0" r="11.4"/>
<circle cx="431.0" cy="703.0" r="11.4"/>
<circle cx="453.0" cy="703.0" r="11.4"/>
<circle cx="475.0" cy="703.0" r="11.4"/>
<circle cx="497.0" cy="703.0" r="11.4"/>
<circle cx="541.0" cy="703.0" r="11.4"/>
<circle cx="607.0" cy="703.0" r="11.4"/>
<circle cx="673.0" cy="703.0" r="11.4"/>
<circle cx="717.0" cy="703.0" r="11.4"/>
<circle cx="299.0" cy="725.0" r="11.4"/>
<circle cx="343.0" cy="725.0" r="11.4"/>
<circle cx="365.0" cy="725.0" r="11.4"/>
<circle cx="409.0" cy="725.0" r="11.4"/>
<circle cx="431.0" cy="725.0" r="11.4"/>
<circle cx="453.0" cy="725.0" r="11.4"/>
<circle cx="541.0" cy="725.0" r="11.4"/>
<circle cx="585.0" cy="725.0" r="11.4"/>
<circle cx="629.0" cy="725.0" r="11.4"/>
<circle cx="651.0" cy="725.0" r="11.4"/>
<circle cx="695.0" cy="725.0" r="11.4"/>
<circle cx="299.0" cy="747.0" r="11.4"/>
<circle cx="321.0" cy="747.0" r="11.4"/>
<circle cx="343.0" cy="747.0" r="11.4"/>
<circle cx="387.0" cy="747.0" r="11.4"/>
<circle cx="409.0" cy="747.0" r="11.4"/>
<circle cx="431.0" cy="747.0" r="11.4"/>
<circle cx="497.0" cy="747.0" r="11.4"/>
<circle cx="519.0" cy="747.0" r="11.4"/>
<circle cx="541.0" cy="747.0" r="11.4"/>
<circle cx="563.0" cy="747.0" r="11.4"/>
<circle cx="585.0" cy="747.0" r="11.4"/>
<circle cx="607.0" cy="747.0" r="11.4"/>
<circle cx="695.0" cy="747.0" r="11.4"/>
</g>
<rect x="90.0" y="120.0" width="154.0" height="154.0" rx="43.1" fill="#d1387b"/><rect x="112.0" y="142.0" width="110.0" height="110.0" rx="30.8" fill="#fff8f5"/><rect x="134.0" y="164.0" width="66.0" height="66.0" rx="19.8" fill="#d1387b"/>
<rect x="574.0" y="120.0" width="154.0" height="154.0" rx="43.1" fill="#d1387b"/><rect x="596.0" y="142.0" width="110.0" height="110.0" rx="30.8" fill="#fff8f5"/><rect x="618.0" y="164.0" width="66.0" height="66.0" rx="19.8" fill="#d1387b"/>
<rect x="90.0" y="604.0" width="154.0" height="154.0" rx="43.1" fill="#d1387b"/><rect x="112.0" y="626.0" width="110.0" height="110.0" rx="30.8" fill="#fff8f5"/><rect x="134.0" y="648.0" width="66.0" height="66.0" rx="19.8" fill="#d1387b"/>
<g transform="translate(78.79 882.00) scale(0.05900 -0.05900)" fill="#40202f"><path transform="translate(0.0 0)" d="M436.0001220703125 6.239990234375Q436.0001220703125 4.1199951171875 433.94012451171875 2.05999755859375Q431.880126953125 0 427.7601318359375 0H43.7601318359375Q39.64013671875 0 37.58013916015625 2.05999755859375Q35.5201416015625 4.1199951171875 35.5201416015625 6.239990234375Q35.5201416015625 10.03997802734375 45.7601318359375 13.5999755859375L109.7603759765625 31.9200439453125Q152.32025146484375 45.32000732421875 180.56015014648438 74.23989868164062Q208.800048828125 103.1597900390625 208.800048828125 157.03961181640625V1181.2801513671875Q208.800048828125 1195.4801635742188 207.36004638671875 1202.3001708984375Q205.9200439453125 1209.1201782226562 195.280029296875 1224.3201904296875L102.800048828125 1375.4400634765625Q99.12005615234375 1382.800048828125 95.04006958007812 1388.5000305175781Q90.9600830078125 1394.2000122070312 90.9600830078125 1396.8800048828125Q90.9600830078125 1398.8800048828125 92.74008178710938 1399.4400024414062Q94.52008056640625 1400 99.2000732421875 1400H387.6790771484375Q393.99908447265625 1400 398.2790832519531 1394.7999877929688Q402.55908203125 1389.5999755859375 410.0791015625 1377.199951171875L1135.6798095703125 183.27978515625L1121.83984375 155.5198974609375V1242.9603881835938Q1121.83984375 1297.2802124023438 1093.2199401855469 1326.7001037597656Q1064.6000366210938 1356.1199951171875 1021.0401611328125 1368.0799560546875L923.5997314453125 1386.4000244140625Q913.3597412109375 1389.9600219726562 913.3597412109375 1393.760009765625Q913.3597412109375 1396.3200073242188 915.4197387695312 1398.1600036621094Q917.479736328125 1400 921.5997314453125 1400H1305.5997314453125Q1309.7197265625 1400 1311.7797241210938 1398.1600036621094Q1313.8397216796875 1396.3200073242188 1313.8397216796875 1393.760009765625Q1313.8397216796875 1389.9600219726562 1303.5997314453125 1386.4000244140625L1239.5994873046875 1368.0799560546875Q1197.4796142578125 1356.1199951171875 1169.0197143554688 1326.7001037597656Q1140.559814453125 1297.2802124023438 1140.559814453125 1242.9603881835938V192.3997802734375Q1140.559814453125 180.71978759765625 1144.3398132324219 171.31979370117188Q1148.1198120117188 161.9197998046875 1152.559814453125 153.9197998046875L1223.27978515625 41.2799072265625Q1233.3197631835938 24.63995361328125 1237.0997619628906 16.8399658203125Q1240.8797607421875 9.03997802734375 1240.8797607421875 5.3599853515625Q1240.8797607421875 3.239990234375 1238.5397644042969 1.6199951171875Q1236.1997680664062 0 1229.519775390625 0H957.8406982421875Q942.960693359375 0 942.960693359375 14.239990234375Q942.960693359375 19.79998779296875 940.6206970214844 27.77996826171875Q938.2807006835938 35.75994873046875 933.8406982421875 42.3199462890625L188.64013671875 1248.719970703125H227.52001953125V156.4796142578125Q227.52001953125 103.1597900390625 256.2599182128906 73.79989624023438Q284.99981689453125 44.44000244140625 326.5596923828125 31.9200439453125L425.7601318359375 13.5999755859375Q436.0001220703125 10.03997802734375 436.0001220703125 6.239990234375Z"/><path transform="translate(1323.2 0)" d="M830.7594604492188 518.880126953125Q830.7594604492188 510.64013671875 825.3594665527344 505.400146484375Q819.95947265625 500.16015625 808.9194946289062 500.16015625H189.95953369140625V517.1201171875H588.5202026367188Q604.7601928710938 517.1201171875 604.7601928710938 535.60009765625Q604.7601928710938 711.0799560546875 556.1601257324219 795.93994140625Q507.56005859375 880.7999267578125 437.31988525390625 880.7999267578125Q378.19970703125 880.7999267578125 335.39959716796875 841.2998657226562Q292.5994873046875 801.7998046875 269.0794372558594 721.6797485351562Q245.55938720703125 641.5596923828125 245.55938720703125 520.3197021484375Q245.55938720703125 314.19970703125 332.2994079589844 210.45965576171875Q419.0394287109375 106.7196044921875 558.7994384765625 106.7196044921875Q661.4393920898438 106.7196044921875 732.6994018554688 164.19961547851562Q803.9594116210938 221.67962646484375 813.6394653320312 319.95965576171875Q814.0794677734375 324.07965087890625 815.9194641113281 325.57965087890625Q817.7594604492188 327.07965087890625 818.7594604492188 327.07965087890625Q821.3194580078125 327.07965087890625 823.3794555664062 325.2996520996094Q825.439453125 323.5196533203125 824.9994506835938 317.95965576171875Q818.8394165039062 221.1197509765625 767.939453125 144.6998291015625Q717.0394897460938 68.2799072265625 633.8795776367188 24.13995361328125Q550.7196655273438 -20 447.27978515625 -20Q324.91986083984375 -20 232.23992919921875 34.47998046875Q139.55999755859375 88.9599609375 87.48004150390625 188.21994018554688Q35.40008544921875 287.47991943359375 35.40008544921875 420.159912109375Q35.40008544921875 561.35986328125 88.46005249023438 668.6398620605469Q141.52001953125 775.9198608398438 238.13995361328125 836.2798767089844Q334.7598876953125 896.639892578125 464.59979248046875 896.639892578125Q576.2396850585938 896.639892578125 658.3196105957031 847.5799255371094Q740.3995361328125 798.5199584960938 785.5794982910156 713.2000122070312Q830.7594604492188 627.8800659179688 830.7594604492188 518.880126953125Z"/><path transform="translate(2168.3 0)" d="M454.9595947265625 0H363.99993896484375Q356.3199462890625 0 351.8599548339844 3.05999755859375Q347.39996337890625 6.1199951171875 344.8399658203125 13.79998779296875L77.72003173828125 820.639892578125Q72.4000244140625 838.0399169921875 62.82000732421875 845.4799194335938Q53.239990234375 852.919921875 36.9599609375 855.4799194335938L-4.12005615234375 862.7199096679688Q-8.9200439453125 863.8399047851562 -10.760040283203125 865.6199035644531Q-12.60003662109375 867.39990234375 -12.60003662109375 869.5198974609375Q-12.60003662109375 873.1998901367188 -10.48004150390625 874.4798889160156Q-8.36004638671875 875.7598876953125 -5.24005126953125 875.7598876953125H416.559326171875Q420.6793212890625 875.7598876953125 422.73931884765625 874.2598876953125Q424.79931640625 872.7598876953125 424.79931640625 869.0798950195312Q424.79931640625 866.9598999023438 422.73931884765625 865.39990234375Q420.6793212890625 863.8399047851562 414.99932861328125 862.2799072265625L361.71929931640625 853.7199096679688Q332.67926025390625 849.2799072265625 325.6992492675781 833.4598999023438Q318.71923828125 817.639892578125 327.03924560546875 791.35986328125L519.87939453125 194.43939208984375L472.99957275390625 74.39990234375L693.5196533203125 782.320068359375L709.9196166992188 773.6800537109375L472.11956787109375 11.79998779296875Q470.5595703125 6.1199951171875 465.87957763671875 3.05999755859375Q461.1995849609375 0 454.9595947265625 0ZM1016.2793579101562 0H924.8796997070312Q918.0797119140625 0 913.1797180175781 3.720001220703125Q908.2797241210938 7.44000244140625 905.7197265625 15.1199951171875L643.8397827148438 814.4798583984375Q637.3997802734375 835.2398681640625 628.759765625 844.4398803710938Q620.1197509765625 853.639892578125 607.8397216796875 855.5198974609375L575.399658203125 861.8399047851562Q569.2796630859375 863.39990234375 566.7796630859375 865.1799011230469Q564.2796630859375 866.9598999023438 564.2796630859375 869.5198974609375Q564.2796630859375 875.7598876953125 572.5196533203125 875.7598876953125H988.5989990234375Q997.2789916992188 875.7598876953125 997.2789916992188 869.0798950195312Q997.2789916992188 866.5198974609375 995.218994140625 864.7398986816406Q993.1589965820312 862.9598999023438 987.0390014648438 861.39990234375L925.4789428710938 848.5198974609375Q894.3189697265625 842.2799072265625 888.198974609375 830.5198974609375Q882.0789794921875 818.7598876953125 889.0789794921875 797.0798950195312L1083.0791625976562 188.91937255859375L1031.559326171875 64.7198486328125L1242.1593627929688 742.7198486328125Q1257.6793823242188 791.39990234375 1245.5593872070312 819.0599060058594Q1233.4393920898438 846.7199096679688 1195.1593627929688 853.2799072265625L1145.279296875 862.2799072265625Q1139.5993041992188 863.8399047851562 1137.539306640625 865.39990234375Q1135.4793090820312 866.9598999023438 1135.4793090820312 869.5198974609375Q1135.4793090820312 873.1998901367188 1137.5993041992188 874.4798889160156Q1139.7192993164062 875.7598876953125 1143.279296875 875.7598876953125H1370.5193481445312Q1375.5193481445312 875.7598876953125 1377.579345703125 874.2598876953125Q1379.6393432617188 872.7598876953125 1379.6393432617188 869.0798950195312Q1379.6393432617188 866.5198974609375 1377.579345703125 864.7398986816406Q1375.5193481445312 862.9598999023438 1369.83935546875 861.39990234375L1345.9593505859375 853.2799072265625Q1318.3193359375 843.7199096679688 1296.8593444824219 815.4999084472656Q1275.3993530273438 787.2799072265625 1260.7593383789062 740.2398681640625L1034.3193359375 13.55999755859375Q1032.3193359375 6.55999755859375 1027.6393432617188 3.279998779296875Q1022.9593505859375 0 1016.2793579101562 0Z"/><path transform="translate(3508.5 0)" d="M352.87939453125 881.119873046875V53.199951171875Q352.87939453125 41.9599609375 359.43939208984375 33.379974365234375Q365.9993896484375 24.79998779296875 377.9993896484375 22.239990234375L434.4794921875 13.3599853515625Q443.5994873046875 12.239990234375 443.5994873046875 6.239990234375Q443.5994873046875 0 434.239501953125 0H42.4000244140625Q38.60003662109375 0 36.260040283203125 2.05999755859375Q33.9200439453125 4.1199951171875 33.9200439453125 6.239990234375Q33.9200439453125 8.3599853515625 36.820037841796875 10.47998046875Q39.72003173828125 12.5999755859375 44.4000244140625 13.5999755859375L102.400146484375 23.3599853515625Q115.5201416015625 25.91998291015625 120.96014404296875 33.0999755859375Q126.400146484375 40.27996826171875 126.400146484375 50.0799560546875V783.4400634765625Q126.400146484375 789.800048828125 123.7801513671875 793.9800415039062Q121.16015625 798.1600341796875 113.920166015625 798.1600341796875H43.52001953125Q40.84002685546875 798.1600341796875 38.500030517578125 800.2200317382812Q36.1600341796875 802.280029296875 36.1600341796875 804.4000244140625Q36.1600341796875 807.4000244140625 38.500030517578125 809.52001953125Q40.84002685546875 811.6400146484375 45.52001953125 812.6400146484375L323.439453125 890.4798583984375Q330.679443359375 893.0398559570312 334.6394348144531 893.3198547363281Q338.59942626953125 893.599853515625 342.3994140625 893.599853515625Q348.19940185546875 893.599853515625 350.5393981933594 889.6998596191406Q352.87939453125 885.7998657226562 352.87939453125 881.119873046875ZM333.679443359375 686.800048828125 324.0794677734375 695.280029296875 358.5594482421875 727.760009765625Q459.5194091796875 822.719970703125 540.7193298339844 859.2399291992188Q621.9192504882812 895.7598876953125 691.8392333984375 895.7598876953125Q790.4392700195312 895.7598876953125 853.3793029785156 834.6998596191406Q916.3193359375 773.6398315429688 916.3193359375 643.6798095703125V52.6400146484375Q916.3193359375 38.8800048828125 923.4593505859375 30.899993896484375Q930.599365234375 22.91998291015625 943.9993896484375 20.47998046875L985.5994873046875 13.5999755859375Q994.95947265625 11.3599853515625 994.95947265625 6.239990234375Q994.95947265625 0 983.3594970703125 0H608.7999267578125Q600.7999267578125 0 600.7999267578125 6.239990234375Q600.7999267578125 12.239990234375 610.7999267578125 13.3599853515625L662.320068359375 21.1199951171875Q681.2000732421875 25.239990234375 687.2000732421875 37.139984130859375Q693.2000732421875 49.03997802734375 693.2000732421875 64.9599609375V619.5198974609375Q693.2000732421875 705.9600830078125 650.7999877929688 750.900146484375Q608.39990234375 795.8402099609375 541.759765625 795.8402099609375Q495.19970703125 795.8402099609375 453.0196228027344 777.7401733398438Q410.83953857421875 759.64013671875 367.0394287109375 718.1600341796875ZM891.6393432617188 686.800048828125 882.0393676757812 695.280029296875 913.1593627929688 731.1199951171875Q990.3994140625 818.0399780273438 1059.9993591308594 856.8999328613281Q1129.5993041992188 895.7598876953125 1204.0392456054688 895.7598876953125Q1296.2392578125 895.7598876953125 1355.6792297363281 834.6998596191406Q1415.1192016601562 773.6398315429688 1431.6392211914062 642.559814453125L1507.1192626953125 54.8800048828125Q1509.1192626953125 39.44000244140625 1516.3792724609375 30.67999267578125Q1523.6392822265625 21.91998291015625 1537.039306640625 19.3599853515625L1577.5194091796875 12.47998046875Q1581.639404296875 11.91998291015625 1583.6994018554688 10.3599853515625Q1585.7593994140625 8.79998779296875 1585.7593994140625 6.239990234375Q1585.7593994140625 3.55999755859375 1583.6994018554688 1.779998779296875Q1581.639404296875 0 1577.5194091796875 0H1189.5198974609375Q1181.5198974609375 0 1181.5198974609375 6.239990234375Q1181.5198974609375 11.3599853515625 1191.5198974609375 13.3599853515625L1243.0400390625 21.1199951171875Q1261.9200439453125 24.79998779296875 1268.9200439453125 37.47998046875Q1275.9200439453125 50.15997314453125 1273.9200439453125 67.199951171875L1208.5199584960938 619.5198974609375Q1197.4799194335938 705.9600830078125 1162.8998718261719 750.900146484375Q1128.31982421875 795.8402099609375 1066.2797241210938 795.8402099609375Q1028.6396484375 795.8402099609375 993.799560546875 777.3601684570312Q958.95947265625 758.880126953125 921.6393432617188 721.52001953125Z"/><path transform="translate(5070.7 0)" d="M560.2800903320312 92.55999755859375V101.27996826171875L549.7601318359375 91.760009765625V727.5994873046875Q549.7601318359375 802.7597045898438 518.9400634765625 842.8998107910156Q488.1199951171875 883.0399169921875 429.4398193359375 883.0399169921875Q363.7596435546875 883.0399169921875 331.87957763671875 850.599853515625Q299.99951171875 818.1597900390625 299.99951171875 778.6397705078125V699.919921875Q299.99951171875 651.8400268554688 266.3796081542969 619.1601257324219Q232.75970458984375 586.480224609375 180.2398681640625 586.480224609375Q142.8399658203125 586.480224609375 118.34002685546875 609.5601806640625Q93.840087890625 632.64013671875 93.840087890625 679.0400390625Q93.840087890625 730.9600219726562 135.02005004882812 781.0799865722656Q176.20001220703125 831.199951171875 257.179931640625 863.919921875Q338.15985107421875 896.639892578125 456.39971923828125 896.639892578125Q618.03955078125 896.639892578125 697.699462890625 828.3599243164062Q777.359375 760.0799560546875 777.359375 635.9200439453125V114.639892578125Q777.359375 78.31982421875 789.8393859863281 62.35980224609375Q802.3193969726562 46.3997802734375 820.8394165039062 46.3997802734375Q838.4794311523438 46.3997802734375 852.7594299316406 57.45977783203125Q867.0394287109375 68.519775390625 870.159423828125 93.3597412109375Q870.7194213867188 97.03973388671875 872.2194213867188 98.31973266601562Q873.7194213867188 99.5997314453125 875.2794189453125 99.5997314453125Q877.8394165039062 99.5997314453125 878.8994140625 98.31973266601562Q879.9594116210938 97.03973388671875 879.9594116210938 93.3597412109375Q879.9594116210938 75.19976806640625 863.2794494628906 49.079833984375Q846.5994873046875 22.95989990234375 809.2595825195312 2.5799560546875Q771.919677734375 -17.79998779296875 709.599853515625 -17.79998779296875Q632 -17.79998779296875 596.1400451660156 13.05999755859375Q560.2800903320312 43.91998291015625 560.2800903320312 92.55999755859375ZM44.0001220703125 193.8399658203125Q44.0001220703125 301.19989013671875 133.06005859375 367.2798767089844Q222.1199951171875 433.35986328125 413.3597412109375 433.35986328125Q476.83984375 433.35986328125 517.5199279785156 420.9998474121094Q558.2000122070312 408.63983154296875 592.9600830078125 390.31982421875L585.60009765625 383.1998291015625Q550.6000366210938 399.83984375 513.9799499511719 409.2398681640625Q477.35986328125 418.639892578125 431.759765625 418.639892578125Q353.87957763671875 418.639892578125 312.2594909667969 368.2398681640625Q270.639404296875 317.83984375 270.639404296875 227.119873046875Q270.639404296875 139.31988525390625 310.6194763183594 92.93984985351562Q350.59954833984375 46.559814453125 415.0396728515625 46.559814453125Q458.27978515625 46.559814453125 500.5398864746094 66.79983520507812Q542.7999877929688 87.03985595703125 570.8800659179688 124.7999267578125L581.3600463867188 118.5599365234375Q537.8400268554688 52.15997314453125 461.4400329589844 16.959991455078125Q385.0400390625 -18.239990234375 296.800048828125 -18.239990234375Q184.4400634765625 -18.239990234375 114.2200927734375 41.1199951171875Q44.0001220703125 100.47998046875 44.0001220703125 193.8399658203125Z"/><path transform="translate(5950.8 0)" d="M352.87939453125 882.2398681640625V54.3199462890625Q352.87939453125 41.39996337890625 358.5993957519531 33.65997314453125Q364.31939697265625 25.91998291015625 376.87939453125 23.3599853515625L433.3594970703125 13.91998291015625Q443.5994873046875 12.239990234375 443.5994873046875 6.239990234375Q443.5994873046875 0 435.3594970703125 0H41.280029296875Q38.60003662109375 0 36.260040283203125 1.779998779296875Q33.9200439453125 3.55999755859375 33.9200439453125 6.239990234375Q33.9200439453125 8.3599853515625 35.98004150390625 10.199981689453125Q38.0400390625 12.03997802734375 43.280029296875 13.03997802734375L102.400146484375 23.3599853515625Q115.5201416015625 25.91998291015625 120.96014404296875 33.65997314453125Q126.400146484375 41.39996337890625 126.400146484375 53.43994140625V785.6800537109375Q126.400146484375 791.4800415039062 123.50015258789062 794.8200378417969Q120.60015869140625 798.1600341796875 113.36016845703125 798.1600341796875H45.760009765625Q41.4000244140625 798.1600341796875 39.34002685546875 800.2200317382812Q37.280029296875 802.280029296875 37.280029296875 804.9600219726562Q37.280029296875 808.52001953125 39.620025634765625 810.0800170898438Q41.96002197265625 811.6400146484375 45.52001953125 812.6400146484375L322.87945556640625 889.9198608398438Q331.7994384765625 892.4798583984375 335.1994323730469 893.0398559570312Q338.59942626953125 893.599853515625 342.3994140625 893.599853515625Q347.639404296875 893.599853515625 350.2593994140625 890.2598571777344Q352.87939453125 886.9198608398438 352.87939453125 882.2398681640625ZM334.3194580078125 687.3600463867188 324.719482421875 697.52001953125 360.3194580078125 729.4400024414062Q458.2794189453125 817.47998046875 529.83935546875 856.6199340820312Q601.3992919921875 895.7598876953125 664.6392822265625 895.7598876953125Q756.279296875 895.7598876953125 807.3193054199219 837.7798461914062Q858.3593139648438 779.7998046875 874.3193359375 657.1197509765625L949.7993774414062 60.47998046875Q951.7993774414062 44.47998046875 958.4993896484375 34.319976806640625Q965.1994018554688 24.15997314453125 980.8394165039062 21.5999755859375L1030.2794799804688 13.03997802734375Q1035.5194702148438 12.47998046875 1037.5794677734375 10.639984130859375Q1039.6394653320312 8.79998779296875 1039.6394653320312 6.239990234375Q1039.6394653320312 3.55999755859375 1037.5794677734375 1.779998779296875Q1035.5194702148438 0 1031.3994750976562 0H630.52001953125Q621.4000244140625 0 621.4000244140625 6.239990234375Q621.4000244140625 11.3599853515625 632.52001953125 13.91998291015625L690.7601318359375 23.3599853515625Q707.400146484375 25.91998291015625 713.8401489257812 36.079986572265625Q720.2801513671875 46.239990234375 718.2801513671875 60.47998046875L651.2000732421875 634.079833984375Q640.1600341796875 718.280029296875 611.1799621582031 757.0601196289062Q582.1998901367188 795.8402099609375 524.6397705078125 795.8402099609375Q486.439697265625 795.8402099609375 449.0796203613281 776.5201721191406Q411.71954345703125 757.2001342773438 368.7994384765625 718.1600341796875Z"/><path transform="translate(6960.0 0) scale(0.875)" d="M206.59967041015625 1266.3204345703125Q135.2398681640625 1266.3204345703125 99.3399658203125 1300.5803527832031Q63.4400634765625 1334.8402709960938 63.4400634765625 1394.1201171875Q63.4400634765625 1450.3599853515625 100.23995971679688 1486.7998962402344Q137.03985595703125 1523.2398071289062 192.87969970703125 1523.2398071289062Q247.11956787109375 1523.2398071289062 286.6594543457031 1478.639892578125Q326.1993408203125 1434.0399780273438 326.1993408203125 1346.16015625Q326.1993408203125 1252.2802734375 299.17938232421875 1179.2403564453125Q272.159423828125 1106.200439453125 220.259521484375 1058.7804870605469Q168.359619140625 1011.3605346679688 93.83978271484375 992.2405395507812Q88.1597900390625 990.6805419921875 84.35980224609375 992.1405334472656Q80.559814453125 993.6005249023438 79.6798095703125 996.280517578125Q79.23980712890625 1000.0805053710938 81.4197998046875 1003.1405029296875Q83.59979248046875 1006.2005004882812 88.95977783203125 1007.760498046875Q157.07965087890625 1026.8804931640625 198.51959228515625 1067.1204833984375Q239.95953369140625 1107.3604736328125 258.5995178222656 1154.48046875Q277.239501953125 1201.6004638671875 277.239501953125 1239.8004760742188Q277.239501953125 1252.2804565429688 270.8795166015625 1259.3004455566406Q264.51953125 1266.3204345703125 248.6795654296875 1266.3204345703125Z"/><path transform="translate(7213.9 0)" d="M407.35986328125 0.0799560546875Q478.0799560546875 0.0799560546875 519.52001953125 37.1400146484375Q560.9600830078125 74.2000732421875 560.9600830078125 133.920166015625Q560.9600830078125 175.72021484375 541.7200622558594 209.16024780273438Q522.4800415039062 242.60028076171875 476.44000244140625 270.8403015136719Q430.39996337890625 299.080322265625 350.39990234375 324.7203369140625Q234.239990234375 363.12030029296875 167.50003051757812 408.6402587890625Q100.76007080078125 454.16021728515625 72.74008178710938 511.0201721191406Q44.7200927734375 567.880126953125 44.7200927734375 640.080078125Q44.7200927734375 763.9199829101562 128.72003173828125 831.1599426269531Q212.719970703125 898.39990234375 352.4798583984375 898.39990234375Q413.27984619140625 898.39990234375 452.4598388671875 886.6799011230469Q491.63983154296875 874.9598999023438 512.4798278808594 863.2398986816406Q533.31982421875 851.5198974609375 539.4398193359375 851.5198974609375Q548.7998046875 851.5198974609375 573.1197509765625 863.2398986816406Q597.439697265625 874.9598999023438 621.0396423339844 886.6799011230469Q644.6395874023438 898.39990234375 651.6795654296875 898.39990234375Q655.3595581054688 898.39990234375 658.8195495605469 896.7799072265625Q662.279541015625 895.159912109375 663.279541015625 887.919921875L717.599609375 602.4801025390625Q719.599609375 595.1201171875 718.5396118164062 590.4401245117188Q717.4796142578125 585.7601318359375 714.4796142578125 583.7601318359375Q711.4796142578125 582.7601318359375 708.6996154785156 584.0401306152344Q705.9196166992188 585.3201293945312 703.359619140625 588.880126953125Q647.5997314453125 698.6000366210938 594.4597778320312 762.5599975585938Q541.31982421875 826.5199584960938 484.6998291015625 853.9799499511719Q428.079833984375 881.43994140625 361.4398193359375 881.43994140625Q284.63970947265625 881.43994140625 241.83963012695312 842.7598876953125Q199.03955078125 804.079833984375 199.03955078125 739.3597412109375Q199.03955078125 697.0797119140625 218.57955932617188 662.6196899414062Q238.11956787109375 628.15966796875 288.3595886230469 599.2996520996094Q338.599609375 570.4396362304688 430.879638671875 544.2396240234375Q535.319580078125 513.879638671875 598.6395568847656 470.09967041015625Q661.9595336914062 426.3197021484375 690.2995300292969 369.53973388671875Q718.6395263671875 312.759765625 718.6395263671875 243.27978515625Q718.6395263671875 162.91986083984375 679.8395690917969 104.21990966796875Q641.0396118164062 45.51995849609375 574.5996704101562 13.199981689453125Q508.15972900390625 -19.1199951171875 424.3997802734375 -19.1199951171875Q369.71978759765625 -19.1199951171875 329.59979248046875 -3.3599853515625Q289.47979736328125 12.4000244140625 265.1997985839844 28.1600341796875Q240.9197998046875 43.9200439453125 235.039794921875 43.9200439453125Q229.6798095703125 43.9200439453125 209.39987182617188 29.440032958984375Q189.11993408203125 14.96002197265625 167.55999755859375 0.480010986328125Q146.00006103515625 -14 138.080078125 -14Q133.7200927734375 -14 128.9801025390625 -9.920013427734375Q124.2401123046875 -5.84002685546875 122.2401123046875 4.3199462890625L77.6800537109375 249.599853515625Q76.6800537109375 260.079833984375 77.52005004882812 264.6998291015625Q78.36004638671875 269.31982421875 81.9200439453125 271.4398193359375Q84.36004638671875 273.4398193359375 86.70004272460938 271.5998229980469Q89.0400390625 269.75982666015625 91.280029296875 266.079833984375Q169.919921875 120.55987548828125 249.71990966796875 60.319915771484375Q329.5198974609375 0.0799560546875 407.35986328125 0.0799560546875Z"/><path transform="translate(7968.1 0)" d=""/></g><g transform="translate(566.68 882.00) scale(0.05900 -0.05900)" fill="#d1387b"><path transform="translate(0.0 0)" d="M953 1422Q1072 1422 1165.75 1370.25Q1259.5 1318.5 1317.75 1221.5Q1376 1124.5 1390.25 988.25Q1404.5 852 1364 683Q1324.5 516.5 1245.75 386.25Q1167 256 1060.5 165.25Q954 74.5 829.0 27.25Q704 -20 571 -20Q447 -20 350.0 30.5Q253 81 194.0 177.5Q135 274 123.75 413.75Q112.5 553.5 160.5 731.5Q201 880 276.5 1006.25Q352 1132.5 456.25 1225.5Q560.5 1318.5 686.5 1370.25Q812.5 1422 953 1422ZM578 -2Q649.5 -2 720.75 32.75Q792 67.5 860.25 147.75Q928.5 228 990.75 362.5Q1053 497 1105.5 696.5Q1138 822.5 1153.0 919.75Q1168 1017 1168 1089.5Q1169.5 1198 1140.5 1267.75Q1111.5 1337.5 1061.5 1371.75Q1011.5 1406 948 1406Q872.5 1406 797.0 1364.75Q721.5 1323.5 652.25 1238.75Q583 1154 523.0 1022.75Q463 891.5 418 712Q384.5 577.5 368.75 477.5Q353 377.5 352.5 305Q351.5 146.5 413.0 72.25Q474.5 -2 578 -2Z"/><path transform="translate(1365.2 0)" d="M811 413.5 763 361 1369.5 1345Q1392.5 1382 1409.75 1391.0Q1427 1400 1459 1400H1739.5Q1744.5 1400 1746.5 1398.5Q1748.5 1397 1748.5 1394.5Q1748.5 1391.5 1746.0 1389.25Q1743.5 1387 1735.5 1385.5L1626 1369Q1612 1367 1601.5 1356.5Q1591 1346 1586.5 1326Q1576 1279 1557.75 1198.75Q1539.5 1118.5 1516.5 1017.25Q1493.5 916 1468.5 804.25Q1443.5 692.5 1419.0 581.5Q1394.5 470.5 1372.25 370.5Q1350 270.5 1333.5 192.75Q1317 115 1308.5 71Q1305 54.5 1310.5 41.5Q1316 28.5 1334 26.5L1441 15.5Q1447.5 15 1450.75 13.0Q1454 11 1454 7.5Q1454 4 1451.25 2.0Q1448.5 0 1443 0H925Q920 0 917.0 1.75Q914 3.5 914 7Q914 11.5 917.5 13.25Q921 15 926.5 15.5L1023.5 27Q1042.5 29 1053.5 41.25Q1064.5 53.5 1069.5 75Q1091.5 171 1113.75 267.0Q1136 363 1159.0 461.0Q1182 559 1205.0 658.75Q1228 758.5 1251.25 861.5Q1274.5 964.5 1297.75 1071.0Q1321 1177.5 1344 1287.5L1370.5 1312L650.5 147Q643 134.5 637.25 127.0Q631.5 119.5 624.5 119.5Q618 119.5 615.25 129.0Q612.5 138.5 611.5 151Q604 228 595.0 315.5Q586 403 576.25 498.75Q566.5 594.5 555.5 695.0Q544.5 795.5 533.25 898.5Q522 1001.5 510.25 1103.75Q498.5 1206 486.5 1304L502 1312.5L163 219.5Q134 125 157.25 79.25Q180.5 33.5 245.5 21L287 15Q297.5 13.5 297.5 7Q297.5 3.5 295.0 1.75Q292.5 0 287.5 0H-74.5Q-79.5 0 -82.5 1.5Q-85.5 3 -85.5 6.5Q-85.5 10.5 -82.25 12.5Q-79 14.5 -73.5 15.5L-39 20.5Q-4 27.5 30.75 48.75Q65.5 70 95.5 112.5Q125.5 155 146.5 224.5L487.5 1326Q493.5 1346.5 487.25 1357.75Q481 1369 461 1371L362 1384Q353.5 1385.5 351.25 1387.5Q349 1389.5 349 1393Q349 1396.5 352.0 1398.25Q355 1400 360 1400H662.5Q682 1400 694.0 1395.0Q706 1390 708 1369Q715.5 1301.5 722.75 1228.0Q730 1154.5 738.0 1076.75Q746 999 754.75 918.0Q763.5 837 772.5 753.25Q781.5 669.5 791.25 584.5Q801 499.5 811 413.5Z"/></g>
<rect x="0" y="0" width="818" height="946" filter="url(#grain)" opacity="0.045"/>
</g>
</svg>