<svg xmlns="http://www.w3.org/2000/svg" viewBox="0 0 878 1106" width="878" height="1106" role="img" aria-label="Scan to visit Newman's OM — fresh sourdough, baked in Jacaranda Cay">
<defs>
<linearGradient id="dot" x1="0" y1="0" x2="1" y2="1">
  <stop offset="0" stop-color="#e85b96"/><stop offset=".4" stop-color="#d1387b"/>
  <stop offset=".75" stop-color="#b2356c"/><stop offset="1" stop-color="#7a1f47"/></linearGradient>
<linearGradient id="gold" x1="0" y1="0" x2="1" y2="1">
  <stop offset="0" stop-color="#e0a53c"/><stop offset="1" stop-color="#c78a2a"/></linearGradient>
<linearGradient id="bar" x1="0" y1="0" x2="1" y2="0">
  <stop offset="0" stop-color="#ff7fb2"/><stop offset=".55" stop-color="#e85b96"/>
  <stop offset="1" stop-color="#e0a53c"/></linearGradient>
<linearGradient id="card" x1="0" y1="0" x2="0" y2="1">
  <stop offset="0" stop-color="#ffffff"/><stop offset=".55" stop-color="#fff8f5"/>
  <stop offset="1" stop-color="#fff0f4"/></linearGradient>
<radialGradient id="med" cx="50%" cy="40%" r="70%">
  <stop offset="0" stop-color="#ffffff"/><stop offset="1" stop-color="#ffdcea"/></radialGradient>
<filter id="grain"><feTurbulence type="fractalNoise" baseFrequency="0.9" numOctaves="2" stitchTiles="stitch"/>
  <feColorMatrix type="saturate" values="0"/></filter>
<filter id="soft" x="-30%" y="-30%" width="160%" height="160%"><feGaussianBlur stdDeviation="16"/></filter>
<clipPath id="cardclip"><rect x="30" y="30" width="818" height="1046" rx="46"/></clipPath>
<path id="star" d="M0,-7 C1,-2 2,-1 7,0 C2,1 1,2 0,7 C-1,2 -2,1 -7,0 C-2,-1 -1,-2 0,-7 Z"/>
</defs>
<rect x="30" y="40" width="818" height="1046" rx="46" fill="#d1387b" opacity="0.18" filter="url(#soft)"/>
<rect x="30" y="30" width="818" height="1046" rx="46" fill="url(#card)" stroke="#f6cddd" stroke-width="1.5"/>
<g clip-path="url(#cardclip)">
<rect x="30" y="30" width="818" height="7" fill="url(#bar)"/>
<line x1="229.5" y1="90" x2="287.5" y2="90" stroke="#e85b96" stroke-width="1.8"/>
<line x1="590.5" y1="90" x2="648.5" y2="90" stroke="#e85b96" stroke-width="1.8"/>
<use href="#star" x="205.5" y="90" fill="url(#gold)"/>
<use href="#star" x="672.5" y="90" fill="url(#gold)"/>
<text x="439.0" y="96" text-anchor="middle" font-family="Inter,Segoe UI,sans-serif" font-size="19" font-weight="700" letter-spacing="7" fill="#d1387b">SCAN TO ORDER</text>
<text x="195.0" y="162" text-anchor="start" font-family="Fraunces,Georgia,serif" font-size="31" font-weight="500" font-style="italic" fill="#7a5060">Baked every day,</text><text x="473.0" y="162" text-anchor="start" font-family="Fraunces,Georgia,serif" font-size="31" font-weight="500" font-style="italic" fill="#d1387b">baked for you</text>
<g fill="url(#dot)">
<circle cx="329.0" cy="247.0" r="11.4"/>
<circle cx="351.0" cy="247.0" r="11.4"/>
<circle cx="373.0" cy="247.0" r="11.4"/>
<circle cx="395.0" cy="247.0" r="11.4"/>
<circle cx="439.0" cy="247.0" r="11.4"/>
<circle cx="461.0" cy="247.0" r="11.4"/>
<circle cx="483.0" cy="247.0" r="11.4"/>
<circle cx="527.0" cy="247.0" r="11.4"/>
<circle cx="329.0" cy="269.0" r="11.4"/>
<circle cx="351.0" cy="269.0" r="11.4"/>
<circle cx="395.0" cy="269.0" r="11.4"/>
<circle cx="439.0" cy="269.0" r="11.4"/>
<circle cx="483.0" cy="269.0" r="11.4"/>
<circle cx="527.0" cy="269.0" r="11.4"/>
<circle cx="571.0" cy="269.0" r="11.4"/>
<circle cx="417.0" cy="291.0" r="11.4"/>
<circle cx="439.0" cy="291.0" r="11.4"/>
<circle cx="527.0" cy="291.0" r="11.4"/>
<circle cx="549.0" cy="291.0" r="11.4"/>
<circle cx="373.0" cy="313.0" r="11.4"/>
<circle cx="395.0" cy="313.0" r="11.4"/>
<circle cx="461.0" cy="313.0" r="11.4"/>
<circle cx="505.0" cy="313.0" r="11.4"/>
<circle cx="571.0" cy="313.0" r="11.4"/>
<circle cx="307.0" cy="335.0" r="11.4"/>
<circle cx="373.0" cy="335.0" r="11.4"/>
<circle cx="395.0" cy="335.0" r="11.4"/>
<circle cx="439.0" cy="335.0" r="11.4"/>
<circle cx="461.0" cy="335.0" r="11.4"/>
<circle cx="483.0" cy="335.0" r="11.4"/>
<circle cx="549.0" cy="335.0" r="11.4"/>
<circle cx="329.0" cy="357.0" r="11.4"/>
<circle cx="351.0" cy="357.0" r="11.4"/>
<circle cx="439.0" cy="357.0" r="11.4"/>
<circle cx="483.0" cy="357.0" r="11.4"/>
<circle cx="505.0" cy="357.0" r="11.4"/>
<circle cx="527.0" cy="357.0" r="11.4"/>
<circle cx="549.0" cy="357.0" r="11.4"/>
<circle cx="571.0" cy="357.0" r="11.4"/>
<circle cx="307.0" cy="379.0" r="11.4"/>
<circle cx="351.0" cy="379.0" r="11.4"/>
<circle cx="395.0" cy="379.0" r="11.4"/>
<circle cx="439.0" cy="379.0" r="11.4"/>
<circle cx="483.0" cy="379.0" r="11.4"/>
<circle cx="527.0" cy="379.0" r="11.4"/>
<circle cx="571.0" cy="379.0" r="11.4"/>
<circle cx="307.0" cy="401.0" r="11.4"/>
<circle cx="329.0" cy="401.0" r="11.4"/>
<circle cx="351.0" cy="401.0" r="11.4"/>
<circle cx="483.0" cy="401.0" r="11.4"/>
<circle cx="175.0" cy="423.0" r="11.4"/>
<circle cx="197.0" cy="423.0" r="11.4"/>
<circle cx="263.0" cy="423.0" r="11.4"/>
<circle cx="285.0" cy="423.0" r="11.4"/>
<circle cx="307.0" cy="423.0" r="11.4"/>
<circle cx="373.0" cy="423.0" r="11.4"/>
<circle cx="395.0" cy="423.0" r="11.4"/>
<circle cx="461.0" cy="423.0" r="11.4"/>
<circle cx="527.0" cy="423.0" r="11.4"/>
<circle cx="549.0" cy="423.0" r="11.4"/>
<circle cx="593.0" cy="423.0" r="11.4"/>
<circle cx="615.0" cy="423.0" r="11.4"/>
<circle cx="659.0" cy="423.0" r="11.4"/>
<circle cx="153.0" cy="445.0" r="11.4"/>
<circle cx="175.0" cy="445.0" r="11.4"/>
<circle cx="241.0" cy="445.0" r="11.4"/>
<circle cx="307.0" cy="445.0" r="11.4"/>
<circle cx="329.0" cy="445.0" r="11.4"/>
<circle cx="373.0" cy="445.0" r="11.4"/>
<circle cx="395.0" cy="445.0" r="11.4"/>
<circle cx="527.0" cy="445.0" r="11.4"/>
<circle cx="593.0" cy="445.0" r="11.4"/>
<circle cx="615.0" cy="445.0" r="11.4"/>
<circle cx="637.0" cy="445.0" r="11.4"/>
<circle cx="659.0" cy="445.0" r="11.4"/>
<circle cx="681.0" cy="445.0" r="11.4"/>
<circle cx="703.0" cy="445.0" r="11.4"/>
<circle cx="747.0" cy="445.0" r="11.4"/>
<circle cx="131.0" cy="467.0" r="11.4"/>
<circle cx="197.0" cy="467.0" r="11.4"/>
<circle cx="219.0" cy="467.0" r="11.4"/>
<circle cx="241.0" cy="467.0" r="11.4"/>
<circle cx="263.0" cy="467.0" r="11.4"/>
<circle cx="285.0" cy="467.0" r="11.4"/>
<circle cx="307.0" cy="467.0" r="11.4"/>
<circle cx="329.0" cy="467.0" r="11.4"/>
<circle cx="373.0" cy="467.0" r="11.4"/>
<circle cx="439.0" cy="467.0" r="11.4"/>
<circle cx="483.0" cy="467.0" r="11.4"/>
<circle cx="527.0" cy="467.0" r="11.4"/>
<circle cx="615.0" cy="467.0" r="11.4"/>
<circle cx="637.0" cy="467.0" r="11.4"/>
<circle cx="659.0" cy="467.0" r="11.4"/>
<circle cx="725.0" cy="467.0" r="11.4"/>
<circle cx="153.0" cy="489.0" r="11.4"/>
<circle cx="175.0" cy="489.0" r="11.4"/>
<circle cx="219.0" cy="489.0" r="11.4"/>
<circle cx="329.0" cy="489.0" r="11.4"/>
<circle cx="351.0" cy="489.0" r="11.4"/>
<circle cx="527.0" cy="489.0" r="11.4"/>
<circle cx="571.0" cy="489.0" r="11.4"/>
<circle cx="637.0" cy="489.0" r="11.4"/>
<circle cx="659.0" cy="489.0" r="11.4"/>
<circle cx="747.0" cy="489.0" r="11.4"/>
<circle cx="131.0" cy="511.0" r="11.4"/>
<circle cx="197.0" cy="511.0" r="11.4"/>
<circle cx="219.0" cy="511.0" r="11.4"/>
<circle cx="241.0" cy="511.0" r="11.4"/>
<circle cx="263.0" cy="511.0" r="11.4"/>
<circle cx="285.0" cy="511.0" r="11.4"/>
<circle cx="307.0" cy="511.0" r="11.4"/>
<circle cx="329.0" cy="511.0" r="11.4"/>
<circle cx="351.0" cy="511.0" r="11.4"/>
<circle cx="549.0" cy="511.0" r="11.4"/>
<circle cx="593.0" cy="511.0" r="11.4"/>
<circle cx="637.0" cy="511.0" r="11.4"/>
<circle cx="681.0" cy="511.0" r="11.4"/>
<circle cx="703.0" cy="511.0" r="11.4"/>
<circle cx="725.0" cy="511.0" r="11.4"/>
<circle cx="747.0" cy="511.0" r="11.4"/>
<circle cx="175.0" cy="533.0" r="11.4"/>
<circle cx="307.0" cy="533.0" r="11.4"/>
<circle cx="329.0" cy="533.0" r="11.4"/>
<circle cx="527.0" cy="533.0" r="11.4"/>
<circle cx="549.0" cy="533.0" r="11.4"/>
<circle cx="615.0" cy="533.0" r="11.4"/>
<circle cx="637.0" cy="533.0" r="11.4"/>
<circle cx="681.0" cy="533.0" r="11.4"/>
<circle cx="703.0" cy="533.0" r="11.4"/>
<circle cx="747.0" cy="533.0" r="11.4"/>
<circle cx="197.0" cy="555.0" r="11.4"/>
<circle cx="263.0" cy="555.0" r="11.4"/>
<circle cx="351.0" cy="555.0" r="11.4"/>
<circle cx="549.0" cy="555.0" r="11.4"/>
<circle cx="615.0" cy="555.0" r="11.4"/>
<circle cx="637.0" cy="555.0" r="11.4"/>
<circle cx="659.0" cy="555.0" r="11.4"/>
<circle cx="681.0" cy="555.0" r="11.4"/>
<circle cx="725.0" cy="555.0" r="11.4"/>
<circle cx="747.0" cy="555.0" r="11.4"/>
<circle cx="153.0" cy="577.0" r="11.4"/>
<circle cx="175.0" cy="577.0" r="11.4"/>
<circle cx="285.0" cy="577.0" r="11.4"/>
<circle cx="307.0" cy="577.0" r="11.4"/>
<circle cx="329.0" cy="577.0" r="11.4"/>
<circle cx="549.0" cy="577.0" r="11.4"/>
<circle cx="571.0" cy="577.0" r="11.4"/>
<circle cx="615.0" cy="577.0" r="11.4"/>
<circle cx="659.0" cy="577.0" r="11.4"/>
<circle cx="681.0" cy="577.0" r="11.4"/>
<circle cx="175.0" cy="599.0" r="11.4"/>
<circle cx="219.0" cy="599.0" r="11.4"/>
<circle cx="241.0" cy="599.0" r="11.4"/>
<circle cx="263.0" cy="599.0" r="11.4"/>
<circle cx="285.0" cy="599.0" r="11.4"/>
<circle cx="549.0" cy="599.0" r="11.4"/>
<circle cx="571.0" cy="599.0" r="11.4"/>
<circle cx="593.0" cy="599.0" r="11.4"/>
<circle cx="637.0" cy="599.0" r="11.4"/>
<circle cx="659.0" cy="599.0" r="11.4"/>
<circle cx="681.0" cy="599.0" r="11.4"/>
<circle cx="197.0" cy="621.0" r="11.4"/>
<circle cx="219.0" cy="621.0" r="11.4"/>
<circle cx="241.0" cy="621.0" r="11.4"/>
<circle cx="285.0" cy="621.0" r="11.4"/>
<circle cx="329.0" cy="621.0" r="11.4"/>
<circle cx="527.0" cy="621.0" r="11.4"/>
<circle cx="681.0" cy="621.0" r="11.4"/>
<circle cx="131.0" cy="643.0" r="11.4"/>
<circle cx="197.0" cy="643.0" r="11.4"/>
<circle cx="263.0" cy="643.0" r="11.4"/>
<circle cx="285.0" cy="643.0" r="11.4"/>
<circle cx="307.0" cy="643.0" r="11.4"/>
<circle cx="373.0" cy="643.0" r="11.4"/>
<circle cx="395.0" cy="643.0" r="11.4"/>
<circle cx="571.0" cy="643.0" r="11.4"/>
<circle cx="615.0" cy="643.0" r="11.4"/>
<circle cx="637.0" cy="643.0" r="11.4"/>
<circle cx="659.0" cy="643.0" r="11.4"/>
<circle cx="681.0" cy="643.0" r="11.4"/>
<circle cx="703.0" cy="643.0" r="11.4"/>
<circle cx="175.0" cy="665.0" r="11.4"/>
<circle cx="241.0" cy="665.0" r="11.4"/>
<circle cx="307.0" cy="665.0" r="11.4"/>
<circle cx="351.0" cy="665.0" r="11.4"/>
<circle cx="373.0" cy="665.0" r="11.4"/>
<circle cx="395.0" cy="665.0" r="11.4"/>
<circle cx="417.0" cy="665.0" r="11.4"/>
<circle cx="439.0" cy="665.0" r="11.4"/>
<circle cx="461.0" cy="665.0" r="11.4"/>
<circle cx="483.0" cy="665.0" r="11.4"/>
<circle cx="505.0" cy="665.0" r="11.4"/>
<circle cx="593.0" cy="665.0" r="11.4"/>
<circle cx="615.0" cy="665.0" r="11.4"/>
<circle cx="659.0" cy="665.0" r="11.4"/>
<circle cx="681.0" cy="665.0" r="11.4"/>
<circle cx="703.0" cy="665.0" r="11.4"/>
<circle cx="747.0" cy="665.0" r="11.4"/>
<circle cx="153.0" cy="687.0" r="11.4"/>
<circle cx="197.0" cy="687.0" r="11.4"/>
<circle cx="241.0" cy="687.0" r="11.4"/>
<circle cx="263.0" cy="687.0" r="11.4"/>
<circle cx="285.0" cy="687.0" r="11.4"/>
<circle cx="307.0" cy="687.0" r="11.4"/>
<circle cx="351.0" cy="687.0" r="11.4"/>
<circle cx="373.0" cy="687.0" r="11.4"/>
<circle cx="395.0" cy="687.0" r="11.4"/>
<circle cx="417.0" cy="687.0" r="11.4"/>
<circle cx="461.0" cy="687.0" r="11.4"/>
<circle cx="483.0" cy="687.0" r="11.4"/>
<circle cx="505.0" cy="687.0" r="11.4"/>
<circle cx="571.0" cy="687.0" r="11.4"/>
<circle cx="593.0" cy="687.0" r="11.4"/>
<circle cx="615.0" cy="687.0" r="11.4"/>
<circle cx="637.0" cy="687.0" r="11.4"/>
<circle cx="659.0" cy="687.0" r="11.4"/>
<circle cx="681.0" cy="687.0" r="11.4"/>
<circle cx="703.0" cy="687.0" r="11.4"/>
<circle cx="725.0" cy="687.0" r="11.4"/>
<circle cx="747.0" cy="687.0" r="11.4"/>
<circle cx="307.0" cy="709.0" r="11.4"/>
<circle cx="329.0" cy="709.0" r="11.4"/>
<circle cx="351.0" cy="709.0" r="11.4"/>
<circle cx="417.0" cy="709.0" r="11.4"/>
<circle cx="483.0" cy="709.0" r="11.4"/>
<circle cx="505.0" cy="709.0" r="11.4"/>
<circle cx="571.0" cy="709.0" r="11.4"/>
<circle cx="659.0" cy="709.0" r="11.4"/>
<circle cx="681.0" cy="709.0" r="11.4"/>
<circle cx="725.0" cy="709.0" r="11.4"/>
<circle cx="747.0" cy="709.0" r="11.4"/>
<circle cx="307.0" cy="731.0" r="11.4"/>
<circle cx="329.0" cy="731.0" r="11.4"/>
<circle cx="351.0" cy="731.0" r="11.4"/>
<circle cx="395.0" cy="731.0" r="11.4"/>
<circle cx="439.0" cy="731.0" r="11.4"/>
<circle cx="505.0" cy="731.0" r="11.4"/>
<circle cx="549.0" cy="731.0" r="11.4"/>
<circle cx="571.0" cy="731.0" r="11.4"/>
<circle cx="615.0" cy="731.0" r="11.4"/>
<circle cx="659.0" cy="731.0" r="11.4"/>
<circle cx="703.0" cy="731.0" r="11.4"/>
<circle cx="725.0" cy="731.0" r="11.4"/>
<circle cx="351.0" cy="753.0" r="11.4"/>
<circle cx="439.0" cy="753.0" r="11.4"/>
<circle cx="571.0" cy="753.0" r="11.4"/>
<circle cx="659.0" cy="753.0" r="11.4"/>
<circle cx="725.0" cy="753.0" r="11.4"/>
<circle cx="747.0" cy="753.0" r="11.4"/>
<circle cx="351.0" cy="775.0" r="11.4"/>
<circle cx="373.0" cy="775.0" r="11.4"/>
<circle cx="395.0" cy="775.0" r="11.4"/>
<circle cx="417.0" cy="775.0" r="11.4"/>
<circle cx="505.0" cy="775.0" r="11.4"/>
<circle cx="571.0" cy="775.0" r="11.4"/>
<circle cx="593.0" cy="775.0" r="11.4"/>
<circle cx="615.0" cy="775.0" r="11.4"/>
<circle cx="637.0" cy="775.0" r="11.4"/>
<circle cx="659.0" cy="775.0" r="11.4"/>
<circle cx="681.0" cy="775.0" r="11.4"/>
<circle cx="703.0" cy="775.0" r="11.4"/>
<circle cx="747.0" cy="775.0" r="11.4"/>
<circle cx="307.0" cy="797.0" r="11.4"/>
<circle cx="329.0" cy="797.0" r="11.4"/>
<circle cx="351.0" cy="797.0" r="11.4"/>
<circle cx="417.0" cy="797.0" r="11.4"/>
<circle cx="439.0" cy="797.0" r="11.4"/>
<circle cx="461.0" cy="797.0" r="11.4"/>
<circle cx="505.0" cy="797.0" r="11.4"/>
<circle cx="527.0" cy="797.0" r="11.4"/>
<circle cx="549.0" cy="797.0" r="11.4"/>
<circle cx="659.0" cy="797.0" r="11.4"/>
<circle cx="681.0" cy="797.0" r="11.4"/>
<circle cx="725.0" cy="797.0" r="11.4"/>
<circle cx="307.0" cy="819.0" r="11.4"/>
<circle cx="329.0" cy="819.0" r="11.4"/>
<circle cx="395.0" cy="819.0" r="11.4"/>
<circle cx="439.0" cy="819.0" r="11.4"/>
<circle cx="461.0" cy="819.0" r="11.4"/>
<circle cx="483.0" cy="819.0" r="11.4"/>
<circle cx="505.0" cy="819.0" r="11.4"/>
<circle cx="527.0" cy="819.0" r="11.4"/>
<circle cx="571.0" cy="819.0" r="11.4"/>
<circle cx="637.0" cy="819.0" r="11.4"/>
<circle cx="703.0" cy="819.0" r="11.4"/>
<circle cx="747.0" cy="819.0" r="11.4"/>
<circle cx="329.0" cy="841.0" r="11.4"/>
<circle cx="373.0" cy="841.0" r="11.4"/>
<circle cx="395.0" cy="841.0" r="11.4"/>
<circle cx="439.0" cy="841.0" r="11.4"/>
<circle cx="461.0" cy="841.0" r="11.4"/>
<circle cx="483.0" cy="841.0" r="11.4"/>
<circle cx="571.0" cy="841.0" r="11.4"/>
<circle cx="615.0" cy="841.0" r="11.4"/>
<circle cx="659.0" cy="841.0" r="11.4"/>
<circle cx="681.0" cy="841.0" r="11.4"/>
<circle cx="725.0" cy="841.0" r="11.4"/>
<circle cx="329.0" cy="863.0" r="11.4"/>
<circle cx="351.0" cy="863.0" r="11.4"/>
<circle cx="373.0" cy="863.0" r="11.4"/>
<circle cx="417.0" cy="863.0" r="11.4"/>
<circle cx="439.0" cy="863.0" r="11.4"/>
<circle cx="461.0" cy="863.0" r="11.4"/>
<circle cx="527.0" cy="863.0" r="11.4"/>
<circle cx="549.0" cy="863.0" r="11.4"/>
<circle cx="571.0" cy="863.0" r="11.4"/>
<circle cx="593.0" cy="863.0" r="11.4"/>
<circle cx="615.0" cy="863.0" r="11.4"/>
<circle cx="637.0" cy="863.0" r="11.4"/>
<circle cx="725.0" cy="863.0" r="11.4"/>
</g>
<rect x="120.0" y="236.0" width="154.0" height="154.0" rx="43.1" fill="url(#dot)"/><rect x="142.0" y="258.0" width="110.0" height="110.0" rx="30.8" fill="#fff8f5"/><rect x="164.0" y="280.0" width="66.0" height="66.0" rx="19.8" fill="url(#dot)"/>
<rect x="604.0" y="236.0" width="154.0" height="154.0" rx="43.1" fill="url(#dot)"/><rect x="626.0" y="258.0" width="110.0" height="110.0" rx="30.8" fill="#fff8f5"/><rect x="648.0" y="280.0" width="66.0" height="66.0" rx="19.8" fill="url(#dot)"/>
<rect x="120.0" y="720.0" width="154.0" height="154.0" rx="43.1" fill="url(#dot)"/><rect x="142.0" y="742.0" width="110.0" height="110.0" rx="30.8" fill="#fff8f5"/><rect x="164.0" y="764.0" width="66.0" height="66.0" rx="19.8" fill="url(#dot)"/>
<rect x="362.0" y="478.0" width="154.0" height="154.0" rx="43.1" fill="url(#dot)"/>
<rect x="384.0" y="500.0" width="110.0" height="110.0" rx="30.8" fill="#fff8f5"/>
<text x="439.0" y="588.0" text-anchor="middle" font-family="Fraunces,Georgia,serif" font-style="italic" font-weight="600" font-size="72.6" fill="#d1387b">OM</text>
<text x="237.0" y="948" text-anchor="start" font-family="Fraunces,Georgia,serif" font-size="52" font-weight="600" fill="#40202f">Newman&#39;s</text>
<text x="552.0" y="948" text-anchor="start" font-family="Fraunces,Georgia,serif" font-size="52" font-weight="600" font-style="italic" fill="#d1387b">OM</text>
<text x="439.0" y="994" text-anchor="middle" font-family="Inter,Segoe UI,sans-serif" font-size="15" font-weight="600" letter-spacing="4.5" fill="#b092a0">FRESH SOURDOUGH  ·  JACARANDA CAY</text>
<rect x="30" y="30" width="818" height="1046" filter="url(#grain)" opacity="0.045"/>
</g>
</svg>