<svg xmlns="http://www.w3.org/2000/svg" viewBox="0 0 878 1028" width="878" height="1028" role="img" aria-label="Scan to visit Newman's OM — fresh sourdough, baked in Jacaranda Cay">
<defs>
<linearGradient id="dot" x1="0" y1="0" x2="1" y2="1">
  <stop offset="0" stop-color="#e85b96"/><stop offset=".4" stop-color="#d1387b"/>
  <stop offset=".75" stop-color="#b2356c"/><stop offset="1" stop-color="#7a1f47"/></linearGradient>
<linearGradient id="gold" x1="0" y1="0" x2="1" y2="1">
  <stop offset="0" stop-color="#e0a53c"/><stop offset="1" stop-color="#c78a2a"/></linearGradient>
<linearGradient id="bar" x1="0" y1="0" x2="1" y2="0">
  <stop offset="0" stop-color="#ff7fb2"/><stop offset=".55" stop-color="#e85b96"/>
  <stop offset="1" stop-color="#e0a53c"/></linearGradient>
<linearGradient id="card" x1="0" y1="0" x2="0" y2="1">
  <stop offset="0" stop-color="#ffffff"/><stop offset=".55" stop-color="#fff8f5"/>
  <stop offset="1" stop-color="#fff0f4"/></linearGradient>
<radialGradient id="med" cx="50%" cy="40%" r="70%">
  <stop offset="0" stop-color="#ffffff"/><stop offset="1" stop-color="#ffdcea"/></radialGradient>
<filter id="grain"><feTurbulence type="fractalNoise" baseFrequency="0.9" numOctaves="2" stitchTiles="stitch"/>
  <feColorMatrix type="saturate" values="0"/></filter>
<filter id="soft" x="-30%" y="-30%" width="160%" height="160%"><feGaussianBlur stdDeviation="16"/></filter>
<clipPath id="cardclip"><rect x="30" y="30" width="818" height="968" rx="46"/></clipPath>
<path id="star" d="M0,-7 C1,-2 2,-1 7,0 C2,1 1,2 0,7 C-1,2 -2,1 -7,0 C-2,-1 -1,-2 0,-7 Z"/>
</defs>
<rect x="30" y="40" width="818" height="968" rx="46" fill="#d1387b" opacity="0.18" filter="url(#soft)"/>
<rect x="30" y="30" width="818" height="968" rx="46" fill="url(#card)"/>
<g clip-path="url(#cardclip)">
<rect x="30" y="30" width="818" height="7" fill="url(#bar)"/>
<text x="195.0" y="106" text-anchor="start" font-family="Fraunces,Georgia,serif" font-size="31" font-weight="500" font-style="italic" fill="#7a5060">Baked every day,</text><text x="473.0" y="106" text-anchor="start" font-family="Fraunces,Georgia,serif" font-size="31" font-weight="500" font-style="italic" fill="#d1387b">baked for you</text>
<g fill="url(#dot)">
<circle cx="329.0" cy="161.0" r="11.4"/>
<circle cx="351.0" cy="161.0" r="11.4"/>
<circle cx="373.0" cy="161.0" r="11.4"/>
<circle cx="395.0" cy="161.0" r="11.4"/>
<circle cx="439.0" cy="161.0" r="11.4"/>
<circle cx="461.0" cy="161.0" r="11.4"/>
<circle cx="483.0" cy="161.0" r="11.4"/>
<circle cx="527.0" cy="161.0" r="11.4"/>
<circle cx="329.0" cy="183.0" r="11.4"/>
<circle cx="351.0" cy="183.0" r="11.4"/>
<circle cx="395.0" cy="183.0" r="11.4"/>
<circle cx="439.0" cy="183.0" r="11.4"/>
<circle cx="483.0" cy="183.0" r="11.4"/>
<circle cx="527.0" cy="183.0" r="11.4"/>
<circle cx="571.0" cy="183.0" r="11.4"/>
<circle cx="417.0" cy="205.0" r="11.4"/>
<circle cx="439.0" cy="205.0" r="11.4"/>
<circle cx="527.0" cy="205.0" r="11.4"/>
<circle cx="549.0" cy="205.0" r="11.4"/>
<circle cx="373.0" cy="227.0" r="11.4"/>
<circle cx="395.0" cy="227.0" r="11.4"/>
<circle cx="461.0" cy="227.0" r="11.4"/>
<circle cx="505.0" cy="227.0" r="11.4"/>
<circle cx="571.0" cy="227.0" r="11.4"/>
<circle cx="307.0" cy="249.0" r="11.4"/>
<circle cx="373.0" cy="249.0" r="11.4"/>
<circle cx="395.0" cy="249.0" r="11.4"/>
<circle cx="439.0" cy="249.0" r="11.4"/>
<circle cx="461.0" cy="249.0" r="11.4"/>
<circle cx="483.0" cy="249.0" r="11.4"/>
<circle cx="549.0" cy="249.0" r="11.4"/>
<circle cx="329.0" cy="271.0" r="11.4"/>
<circle cx="351.0" cy="271.0" r="11.4"/>
<circle cx="439.0" cy="271.0" r="11.4"/>
<circle cx="483.0" cy="271.0" r="11.4"/>
<circle cx="505.0" cy="271.0" r="11.4"/>
<circle cx="527.0" cy="271.0" r="11.4"/>
<circle cx="549.0" cy="271.0" r="11.4"/>
<circle cx="571.0" cy="271.0" r="11.4"/>
<circle cx="307.0" cy="293.0" r="11.4"/>
<circle cx="351.0" cy="293.0" r="11.4"/>
<circle cx="395.0" cy="293.0" r="11.4"/>
<circle cx="439.0" cy="293.0" r="11.4"/>
<circle cx="483.0" cy="293.0" r="11.4"/>
<circle cx="527.0" cy="293.0" r="11.4"/>
<circle cx="571.0" cy="293.0" r="11.4"/>
<circle cx="307.0" cy="315.0" r="11.4"/>
<circle cx="329.0" cy="315.0" r="11.4"/>
<circle cx="351.0" cy="315.0" r="11.4"/>
<circle cx="483.0" cy="315.0" r="11.4"/>
<circle cx="175.0" cy="337.0" r="11.4"/>
<circle cx="197.0" cy="337.0" r="11.4"/>
<circle cx="263.0" cy="337.0" r="11.4"/>
<circle cx="285.0" cy="337.0" r="11.4"/>
<circle cx="307.0" cy="337.0" r="11.4"/>
<circle cx="373.0" cy="337.0" r="11.4"/>
<circle cx="395.0" cy="337.0" r="11.4"/>
<circle cx="461.0" cy="337.0" r="11.4"/>
<circle cx="527.0" cy="337.0" r="11.4"/>
<circle cx="549.0" cy="337.0" r="11.4"/>
<circle cx="593.0" cy="337.0" r="11.4"/>
<circle cx="615.0" cy="337.0" r="11.4"/>
<circle cx="659.0" cy="337.0" r="11.4"/>
<circle cx="153.0" cy="359.0" r="11.4"/>
<circle cx="175.0" cy="359.0" r="11.4"/>
<circle cx="241.0" cy="359.0" r="11.4"/>
<circle cx="307.0" cy="359.0" r="11.4"/>
<circle cx="329.0" cy="359.0" r="11.4"/>
<circle cx="373.0" cy="359.0" r="11.4"/>
<circle cx="395.0" cy="359.0" r="11.4"/>
<circle cx="527.0" cy="359.0" r="11.4"/>
<circle cx="593.0" cy="359.0" r="11.4"/>
<circle cx="615.0" cy="359.0" r="11.4"/>
<circle cx="637.0" cy="359.0" r="11.4"/>
<circle cx="659.0" cy="359.0" r="11.4"/>
<circle cx="681.0" cy="359.0" r="11.4"/>
<circle cx="703.0" cy="359.0" r="11.4"/>
<circle cx="747.0" cy="359.0" r="11.4"/>
<circle cx="131.0" cy="381.0" r="11.4"/>
<circle cx="197.0" cy="381.0" r="11.4"/>
<circle cx="219.0" cy="381.0" r="11.4"/>
<circle cx="241.0" cy="381.0" r="11.4"/>
<circle cx="263.0" cy="381.0" r="11.4"/>
<circle cx="285.0" cy="381.0" r="11.4"/>
<circle cx="307.0" cy="381.0" r="11.4"/>
<circle cx="329.0" cy="381.0" r="11.4"/>
<circle cx="373.0" cy="381.0" r="11.4"/>
<circle cx="439.0" cy="381.0" r="11.4"/>
<circle cx="483.0" cy="381.0" r="11.4"/>
<circle cx="527.0" cy="381.0" r="11.4"/>
<circle cx="615.0" cy="381.0" r="11.4"/>
<circle cx="637.0" cy="381.0" r="11.4"/>
<circle cx="659.0" cy="381.0" r="11.4"/>
<circle cx="725.0" cy="381.0" r="11.4"/>
<circle cx="153.0" cy="403.0" r="11.4"/>
<circle cx="175.0" cy="403.0" r="11.4"/>
<circle cx="219.0" cy="403.0" r="11.4"/>
<circle cx="329.0" cy="403.0" r="11.4"/>
<circle cx="351.0" cy="403.0" r="11.4"/>
<circle cx="373.0" cy="403.0" r="11.4"/>
<circle cx="395.0" cy="403.0" r="11.4"/>
<circle cx="439.0" cy="403.0" r="11.4"/>
<circle cx="461.0" cy="403.0" r="11.4"/>
<circle cx="505.0" cy="403.0" r="11.4"/>
<circle cx="527.0" cy="403.0" r="11.4"/>
<circle cx="571.0" cy="403.0" r="11.4"/>
<circle cx="637.0" cy="403.0" r="11.4"/>
<circle cx="659.0" cy="403.0" r="11.4"/>
<circle cx="747.0" cy="403.0" r="11.4"/>
<circle cx="131.0" cy="425.0" r="11.4"/>
<circle cx="197.0" cy="425.0" r="11.4"/>
<circle cx="219.0" cy="425.0" r="11.4"/>
<circle cx="241.0" cy="425.0" r="11.4"/>
<circle cx="263.0" cy="425.0" r="11.4"/>
<circle cx="285.0" cy="425.0" r="11.4"/>
<circle cx="307.0" cy="425.0" r="11.4"/>
<circle cx="329.0" cy="425.0" r="11.4"/>
<circle cx="351.0" cy="425.0" r="11.4"/>
<circle cx="395.0" cy="425.0" r="11.4"/>
<circle cx="505.0" cy="425.0" r="11.4"/>
<circle cx="549.0" cy="425.0" r="11.4"/>
<circle cx="593.0" cy="425.0" r="11.4"/>
<circle cx="637.0" cy="425.0" r="11.4"/>
<circle cx="681.0" cy="425.0" r="11.4"/>
<circle cx="703.0" cy="425.0" r="11.4"/>
<circle cx="725.0" cy="425.0" r="11.4"/>
<circle cx="747.0" cy="425.0" r="11.4"/>
<circle cx="175.0" cy="447.0" r="11.4"/>
<circle cx="307.0" cy="447.0" r="11.4"/>
<circle cx="329.0" cy="447.0" r="11.4"/>
<circle cx="395.0" cy="447.0" r="11.4"/>
<circle cx="461.0" cy="447.0" r="11.4"/>
<circle cx="505.0" cy="447.0" r="11.4"/>
<circle cx="527.0" cy="447.0" r="11.4"/>
<circle cx="549.0" cy="447.0" r="11.4"/>
<circle cx="615.0" cy="447.0" r="11.4"/>
<circle cx="637.0" cy="447.0" r="11.4"/>
<circle cx="681.0" cy="447.0" r="11.4"/>
<circle cx="703.0" cy="447.0" r="11.4"/>
<circle cx="747.0" cy="447.0" r="11.4"/>
<circle cx="197.0" cy="469.0" r="11.4"/>
<circle cx="263.0" cy="469.0" r="11.4"/>
<circle cx="351.0" cy="469.0" r="11.4"/>
<circle cx="417.0" cy="469.0" r="11.4"/>
<circle cx="483.0" cy="469.0" r="11.4"/>
<circle cx="549.0" cy="469.0" r="11.4"/>
<circle cx="615.0" cy="469.0" r="11.4"/>
<circle cx="637.0" cy="469.0" r="11.4"/>
<circle cx="659.0" cy="469.0" r="11.4"/>
<circle cx="681.0" cy="469.0" r="11.4"/>
<circle cx="725.0" cy="469.0" r="11.4"/>
<circle cx="747.0" cy="469.0" r="11.4"/>
<circle cx="153.0" cy="491.0" r="11.4"/>
<circle cx="175.0" cy="491.0" r="11.4"/>
<circle cx="285.0" cy="491.0" r="11.4"/>
<circle cx="307.0" cy="491.0" r="11.4"/>
<circle cx="329.0" cy="491.0" r="11.4"/>
<circle cx="395.0" cy="491.0" r="11.4"/>
<circle cx="483.0" cy="491.0" r="11.4"/>
<circle cx="505.0" cy="491.0" r="11.4"/>
<circle cx="549.0" cy="491.0" r="11.4"/>
<circle cx="571.0" cy="491.0" r="11.4"/>
<circle cx="615.0" cy="491.0" r="11.4"/>
<circle cx="659.0" cy="491.0" r="11.4"/>
<circle cx="681.0" cy="491.0" r="11.4"/>
<circle cx="175.0" cy="513.0" r="11.4"/>
<circle cx="219.0" cy="513.0" r="11.4"/>
<circle cx="241.0" cy="513.0" r="11.4"/>
<circle cx="263.0" cy="513.0" r="11.4"/>
<circle cx="285.0" cy="513.0" r="11.4"/>
<circle cx="373.0" cy="513.0" r="11.4"/>
<circle cx="461.0" cy="513.0" r="11.4"/>
<circle cx="483.0" cy="513.0" r="11.4"/>
<circle cx="549.0" cy="513.0" r="11.4"/>
<circle cx="571.0" cy="513.0" r="11.4"/>
<circle cx="593.0" cy="513.0" r="11.4"/>
<circle cx="637.0" cy="513.0" r="11.4"/>
<circle cx="659.0" cy="513.0" r="11.4"/>
<circle cx="681.0" cy="513.0" r="11.4"/>
<circle cx="197.0" cy="535.0" r="11.4"/>
<circle cx="219.0" cy="535.0" r="11.4"/>
<circle cx="241.0" cy="535.0" r="11.4"/>
<circle cx="285.0" cy="535.0" r="11.4"/>
<circle cx="329.0" cy="535.0" r="11.4"/>
<circle cx="395.0" cy="535.0" r="11.4"/>
<circle cx="417.0" cy="535.0" r="11.4"/>
<circle cx="439.0" cy="535.0" r="11.4"/>
<circle cx="483.0" cy="535.0" r="11.4"/>
<circle cx="505.0" cy="535.0" r="11.4"/>
<circle cx="527.0" cy="535.0" r="11.4"/>
<circle cx="681.0" cy="535.0" r="11.4"/>
<circle cx="131.0" cy="557.0" r="11.4"/>
<circle cx="197.0" cy="557.0" r="11.4"/>
<circle cx="263.0" cy="557.0" r="11.4"/>
<circle cx="285.0" cy="557.0" r="11.4"/>
<circle cx="307.0" cy="557.0" r="11.4"/>
<circle cx="373.0" cy="557.0" r="11.4"/>
<circle cx="395.0" cy="557.0" r="11.4"/>
<circle cx="571.0" cy="557.0" r="11.4"/>
<circle cx="615.0" cy="557.0" r="11.4"/>
<circle cx="637.0" cy="557.0" r="11.4"/>
<circle cx="659.0" cy="557.0" r="11.4"/>
<circle cx="681.0" cy="557.0" r="11.4"/>
<circle cx="703.0" cy="557.0" r="11.4"/>
<circle cx="175.0" cy="579.0" r="11.4"/>
<circle cx="241.0" cy="579.0" r="11.4"/>
<circle cx="307.0" cy="579.0" r="11.4"/>
<circle cx="351.0" cy="579.0" r="11.4"/>
<circle cx="373.0" cy="579.0" r="11.4"/>
<circle cx="395.0" cy="579.0" r="11.4"/>
<circle cx="417.0" cy="579.0" r="11.4"/>
<circle cx="439.0" cy="579.0" r="11.4"/>
<circle cx="461.0" cy="579.0" r="11.4"/>
<circle cx="483.0" cy="579.0" r="11.4"/>
<circle cx="505.0" cy="579.0" r="11.4"/>
<circle cx="593.0" cy="579.0" r="11.4"/>
<circle cx="615.0" cy="579.0" r="11.4"/>
<circle cx="659.0" cy="579.0" r="11.4"/>
<circle cx="681.0" cy="579.0" r="11.4"/>
<circle cx="703.0" cy="579.0" r="11.4"/>
<circle cx="747.0" cy="579.0" r="11.4"/>
<circle cx="153.0" cy="601.0" r="11.4"/>
<circle cx="197.0" cy="601.0" r="11.4"/>
<circle cx="241.0" cy="601.0" r="11.4"/>
<circle cx="263.0" cy="601.0" r="11.4"/>
<circle cx="285.0" cy="601.0" r="11.4"/>
<circle cx="307.0" cy="601.0" r="11.4"/>
<circle cx="351.0" cy="601.0" r="11.4"/>
<circle cx="373.0" cy="601.0" r="11.4"/>
<circle cx="395.0" cy="601.0" r="11.4"/>
<circle cx="417.0" cy="601.0" r="11.4"/>
<circle cx="461.0" cy="601.0" r="11.4"/>
<circle cx="483.0" cy="601.0" r="11.4"/>
<circle cx="505.0" cy="601.0" r="11.4"/>
<circle cx="571.0" cy="601.0" r="11.4"/>
<circle cx="593.0" cy="601.0" r="11.4"/>
<circle cx="615.0" cy="601.0" r="11.4"/>
<circle cx="637.0" cy="601.0" r="11.4"/>
<circle cx="659.0" cy="601.0" r="11.4"/>
<circle cx="681.0" cy="601.0" r="11.4"/>
<circle cx="703.0" cy="601.0" r="11.4"/>
<circle cx="725.0" cy="601.0" r="11.4"/>
<circle cx="747.0" cy="601.0" r="11.4"/>
<circle cx="307.0" cy="623.0" r="11.4"/>
<circle cx="329.0" cy="623.0" r="11.4"/>
<circle cx="351.0" cy="623.0" r="11.4"/>
<circle cx="417.0" cy="623.0" r="11.4"/>
<circle cx="483.0" cy="623.0" r="11.4"/>
<circle cx="505.0" cy="623.0" r="11.4"/>
<circle cx="571.0" cy="623.0" r="11.4"/>
<circle cx="659.0" cy="623.0" r="11.4"/>
<circle cx="681.0" cy="623.0" r="11.4"/>
<circle cx="725.0" cy="623.0" r="11.4"/>
<circle cx="747.0" cy="623.0" r="11.4"/>
<circle cx="307.0" cy="645.0" r="11.4"/>
<circle cx="329.0" cy="645.0" r="11.4"/>
<circle cx="351.0" cy="645.0" r="11.4"/>
<circle cx="395.0" cy="645.0" r="11.4"/>
<circle cx="439.0" cy="645.0" r="11.4"/>
<circle cx="505.0" cy="645.0" r="11.4"/>
<circle cx="549.0" cy="645.0" r="11.4"/>
<circle cx="571.0" cy="645.0" r="11.4"/>
<circle cx="615.0" cy="645.0" r="11.4"/>
<circle cx="659.0" cy="645.0" r="11.4"/>
<circle cx="703.0" cy="645.0" r="11.4"/>
<circle cx="725.0" cy="645.0" r="11.4"/>
<circle cx="351.0" cy="667.0" r="11.4"/>
<circle cx="439.0" cy="667.0" r="11.4"/>
<circle cx="571.0" cy="667.0" r="11.4"/>
<circle cx="659.0" cy="667.0" r="11.4"/>
<circle cx="725.0" cy="667.0" r="11.4"/>
<circle cx="747.0" cy="667.0" r="11.4"/>
<circle cx="351.0" cy="689.0" r="11.4"/>
<circle cx="373.0" cy="689.0" r="11.4"/>
<circle cx="395.0" cy="689.0" r="11.4"/>
<circle cx="417.0" cy="689.0" r="11.4"/>
<circle cx="505.0" cy="689.0" r="11.4"/>
<circle cx="571.0" cy="689.0" r="11.4"/>
<circle cx="593.0" cy="689.0" r="11.4"/>
<circle cx="615.0" cy="689.0" r="11.4"/>
<circle cx="637.0" cy="689.0" r="11.4"/>
<circle cx="659.0" cy="689.0" r="11.4"/>
<circle cx="681.0" cy="689.0" r="11.4"/>
<circle cx="703.0" cy="689.0" r="11.4"/>
<circle cx="747.0" cy="689.0" r="11.4"/>
<circle cx="307.0" cy="711.0" r="11.4"/>
<circle cx="329.0" cy="711.0" r="11.4"/>
<circle cx="351.0" cy="711.0" r="11.4"/>
<circle cx="417.0" cy="711.0" r="11.4"/>
<circle cx="439.0" cy="711.0" r="11.4"/>
<circle cx="461.0" cy="711.0" r="11.4"/>
<circle cx="505.0" cy="711.0" r="11.4"/>
<circle cx="527.0" cy="711.0" r="11.4"/>
<circle cx="549.0" cy="711.0" r="11.4"/>
<circle cx="659.0" cy="711.0" r="11.4"/>
<circle cx="681.0" cy="711.0" r="11.4"/>
<circle cx="725.0" cy="711.0" r="11.4"/>
<circle cx="307.0" cy="733.0" r="11.4"/>
<circle cx="329.0" cy="733.0" r="11.4"/>
<circle cx="395.0" cy="733.0" r="11.4"/>
<circle cx="439.0" cy="733.0" r="11.4"/>
<circle cx="461.0" cy="733.0" r="11.4"/>
<circle cx="483.0" cy="733.0" r="11.4"/>
<circle cx="505.0" cy="733.0" r="11.4"/>
<circle cx="527.0" cy="733.0" r="11.4"/>
<circle cx="571.0" cy="733.0" r="11.4"/>
<circle cx="637.0" cy="733.0" r="11.4"/>
<circle cx="703.0" cy="733.0" r="11.4"/>
<circle cx="747.0" cy="733.0" r="11.4"/>
<circle cx="329.0" cy="755.0" r="11.4"/>
<circle cx="373.0" cy="755.0" r="11.4"/>
<circle cx="395.0" cy="755.0" r="11.4"/>
<circle cx="439.0" cy="755.0" r="11.4"/>
<circle cx="461.0" cy="755.0" r="11.4"/>
<circle cx="483.0" cy="755.0" r="11.4"/>
<circle cx="571.0" cy="755.0" r="11.4"/>
<circle cx="615.0" cy="755.0" r="11.4"/>
<circle cx="659.0" cy="755.0" r="11.4"/>
<circle cx="681.0" cy="755.0" r="11.4"/>
<circle cx="725.0" cy="755.0" r="11.4"/>
<circle cx="329.0" cy="777.0" r="11.4"/>
<circle cx="351.0" cy="777.0" r="11.4"/>
<circle cx="373.0" cy="777.0" r="11.4"/>
<circle cx="417.0" cy="777.0" r="11.4"/>
<circle cx="439.0" cy="777.0" r="11.4"/>
<circle cx="461.0" cy="777.0" r="11.4"/>
<circle cx="527.0" cy="777.0" r="11.4"/>
<circle cx="549.0" cy="777.0" r="11.4"/>
<circle cx="571.0" cy="777.0" r="11.4"/>
<circle cx="593.0" cy="777.0" r="11.4"/>
<circle cx="615.0" cy="777.0" r="11.4"/>
<circle cx="637.0" cy="777.0" r="11.4"/>
<circle cx="725.0" cy="777.0" r="11.4"/>
</g>
<rect x="120.0" y="150.0" width="154.0" height="154.0" rx="43.1" fill="url(#dot)"/><rect x="142.0" y="172.0" width="110.0" height="110.0" rx="30.8" fill="#fff8f5"/><rect x="164.0" y="194.0" width="66.0" height="66.0" rx="19.8" fill="url(#dot)"/>
<rect x="604.0" y="150.0" width="154.0" height="154.0" rx="43.1" fill="url(#dot)"/><rect x="626.0" y="172.0" width="110.0" height="110.0" rx="30.8" fill="#fff8f5"/><rect x="648.0" y="194.0" width="66.0" height="66.0" rx="19.8" fill="url(#dot)"/>
<rect x="120.0" y="634.0" width="154.0" height="154.0" rx="43.1" fill="url(#dot)"/><rect x="142.0" y="656.0" width="110.0" height="110.0" rx="30.8" fill="#fff8f5"/><rect x="164.0" y="678.0" width="66.0" height="66.0" rx="19.8" fill="url(#dot)"/>
<text x="154.0" y="880.0" text-anchor="start" font-family="Fraunces,Georgia,serif" font-size="74" font-weight="600" fill="#40202f">Newman&#39;s</text>
<text x="597.0" y="880.0" text-anchor="start" font-family="Fraunces,Georgia,serif" font-size="74" font-weight="600" font-style="italic" fill="#d1387b">OM</text>
<text x="439.0" y="928.0" text-anchor="middle" font-family="Inter,Segoe UI,sans-serif" font-size="15.5" font-weight="600" letter-spacing="4.5" fill="#b092a0">FRESH SOURDOUGH  ·  JACARANDA CAY</text>
<rect x="30" y="30" width="818" height="968" filter="url(#grain)" opacity="0.045"/>
</g>
</svg>